<?xml version="1.0" encoding="UTF-8" standalone="no"?>
<svg xmlns="http://www.w3.org/2000/svg" width="100" height="100" viewBox="0 0 100 100">
  <!-- Body -->
  <ellipse cx="50" cy="55" rx="30" ry="35" fill="#9966CC" />
  
  <!-- Head -->
  <circle cx="50" cy="35" r="25" fill="#9966CC" />
  
  <!-- Ears -->
  <circle cx="25" cy="25" r="10" fill="#9966CC" />
  <circle cx="75" cy="25" r="10" fill="#9966CC" />
  
  <!-- Inner Ears -->
  <circle cx="25" cy="25" r="5" fill="#7744AA" />
  <circle cx="75" cy="25" r="5" fill="#7744AA" />
  
  <!-- Eyes -->
  <circle cx="40" cy="30" r="5" fill="white" />
  <circle cx="60" cy="30" r="5" fill="white" />
  
  <!-- Pupils -->
  <circle cx="40" cy="30" r="2" fill="black" />
  <circle cx="60" cy="30" r="2" fill="black" />
  
  <!-- Nose -->
  <ellipse cx="50" cy="40" rx="7" ry="5" fill="#7744AA" />
  
  <!-- Mouth -->
  <path d="M35,45 Q50,55 65,45" stroke="black" stroke-width="2" fill="none" />
  
  <!-- Arms -->
  <path d="M20,55 Q10,70 15,85" stroke="#9966CC" stroke-width="10" fill="none" />
  <path d="M80,55 Q90,70 85,85" stroke="#9966CC" stroke-width="10" fill="none" />
  
  <!-- Legs -->
  <path d="M35,85 Q40,100 45,95" stroke="#9966CC" stroke-width="10" fill="none" />
  <path d="M65,85 Q60,100 55,95" stroke="#9966CC" stroke-width="10" fill="none" />
</svg>
