<?xml version="1.0" standalone="no"?>
<!DOCTYPE svg PUBLIC "-//W3C//DTD SVG 20010904//EN"
 "http://www.w3.org/TR/2001/REC-SVG-20010904/DTD/svg10.dtd">
<svg version="1.0" xmlns="http://www.w3.org/2000/svg"
 width="400.000000pt" height="400.000000pt" viewBox="0 0 400.000000 400.000000"
 preserveAspectRatio="xMidYMid meet">

<g transform="translate(0.000000,400.000000) scale(0.100000,-0.100000)"
fill="#000000" stroke="none">
<path d="M961 2844 c-197 -53 -336 -218 -366 -436 -6 -45 -7 -47 -46 -53 -109
-19 -232 -119 -286 -233 -22 -49 -26 -71 -27 -158 -1 -96 0 -103 37 -176 47
-97 126 -172 219 -208 52 -20 80 -25 158 -25 88 0 101 3 163 33 107 53 196
159 223 267 6 23 10 25 69 25 167 0 340 108 417 261 74 148 76 298 7 446 -97
205 -345 317 -568 257z m135 -149 c88 -37 164 -150 164 -245 0 -65 -35 -143
-86 -190 -60 -55 -105 -73 -184 -74 -72 0 -130 23 -183 72 -81 75 -102 212
-49 312 64 124 211 178 338 125z m282 -416 c34 -12 72 -63 72 -98 0 -38 -30
-82 -67 -97 -45 -19 -83 -11 -119 27 -53 55 -34 132 41 165 37 16 35 16 73 3z"/>
<path d="M2755 2846 c-113 -28 -229 -114 -296 -217 -90 -140 -96 -339 -16
-493 28 -54 121 -152 174 -182 83 -50 143 -67 252 -73 l104 -6 17 -53 c23 -69
92 -158 160 -204 188 -126 453 -72 568 117 138 226 29 518 -226 606 -30 10
-70 19 -89 19 -31 0 -33 2 -33 33 0 142 -110 324 -244 402 -101 59 -253 80
-371 51z m118 -147 c61 -17 141 -102 161 -168 21 -72 20 -109 -4 -175 -23 -61
-87 -128 -148 -153 -47 -20 -156 -20 -203 -1 -52 23 -107 75 -135 129 -35 71
-34 175 4 243 65 118 187 165 325 125z m302 -424 c83 -40 76 -167 -11 -195
-96 -32 -182 81 -121 161 14 18 66 48 85 49 8 0 29 -7 47 -15z"/>
<path d="M1824 2171 c-65 -24 -107 -55 -129 -95 -35 -64 8 -127 120 -177 44
-20 67 -23 180 -23 112 0 138 3 185 22 70 29 105 58 123 102 29 72 -17 131
-132 170 -82 27 -271 28 -347 1z"/>
<path d="M1894 1516 c-141 -46 -241 -192 -231 -336 8 -125 85 -233 204 -287
79 -36 187 -36 266 0 74 34 141 97 174 166 39 80 40 191 1 273 -32 70 -97 136
-163 168 -60 29 -187 37 -251 16z"/>
</g>
</svg>
