<?xml version="1.0" standalone="no"?>
<!DOCTYPE svg PUBLIC "-//W3C//DTD SVG 20010904//EN"
 "http://www.w3.org/TR/2001/REC-SVG-20010904/DTD/svg10.dtd">
<svg version="1.0" xmlns="http://www.w3.org/2000/svg"
 width="400.000000pt" height="400.000000pt" viewBox="0 0 400.000000 400.000000"
 preserveAspectRatio="xMidYMid meet">

<g transform="translate(0.000000,400.000000) scale(0.100000,-0.100000)"
fill="#000000" stroke="none">
<path d="M0 2000 l0 -2000 2000 0 2000 0 0 2000 0 2000 -2000 0 -2000 0 0
-2000z m2514 1554 c6 -16 33 -19 38 -3 5 14 38 0 38 -16 0 -28 -64 -34 -92 -8
-22 19 -25 55 -4 47 8 -3 17 -12 20 -20z m-607 -899 c12 9 35 38 50 65 15 28
31 50 35 50 4 0 10 -21 13 -47 9 -65 12 -73 29 -73 12 0 14 8 9 33 -3 17 -6
36 -7 41 0 6 7 11 16 14 11 2 28 -13 50 -47 18 -28 35 -51 38 -51 3 0 15 23
27 51 29 65 49 61 45 -7 l-3 -49 27 48 c31 53 45 56 55 8 9 -46 14 -46 38 -6
23 39 46 38 38 -1 -4 -20 -1 -23 18 -18 19 5 22 1 23 -26 0 -18 3 -34 5 -36 2
-3 28 7 58 21 52 24 79 31 79 20 0 -3 -9 -23 -20 -45 -28 -55 -26 -57 24 -16
41 33 76 46 76 28 0 -4 -4 -23 -10 -42 l-9 -35 23 29 24 29 15 -24 c9 -13 23
-43 33 -67 9 -24 26 -48 38 -53 49 -22 129 -77 192 -134 7 -5 32 -25 55 -44
52 -40 134 -147 156 -203 46 -115 -45 -320 -209 -473 -40 -37 -91 -76 -113
-86 -87 -39 -192 -91 -234 -116 -24 -14 -103 -48 -175 -75 l-131 -49 -290 -2
c-250 -2 -298 0 -351 16 -36 10 -96 17 -141 17 -61 0 -99 7 -164 29 -157 53
-222 94 -355 226 -97 96 -137 178 -142 293 -3 49 1 103 9 130 15 58 125 286
144 302 25 20 17 32 -15 25 -23 -5 -30 -3 -30 8 0 16 25 27 112 51 65 19 80
33 43 42 -14 3 -25 10 -25 14 0 12 53 28 113 36 73 9 89 19 54 35 -55 25 -15
45 69 34 30 -3 54 -4 54 0 0 3 -6 18 -14 33 -7 15 -17 37 -20 50 -10 32 20 29
56 -5 l28 -27 0 58 c0 65 16 72 35 15 l12 -34 13 40 c20 63 26 64 80 10 54
-53 59 -49 35 31 -18 58 -17 54 -6 54 5 0 35 -27 67 -60 32 -33 62 -60 67 -60
6 0 7 19 4 45 -9 59 14 61 43 5 12 -23 25 -38 31 -35 5 4 24 34 42 68 l32 62
5 -68 c5 -67 5 -67 27 -52z m-672 -1470 c0 -26 7 -32 95 -71 52 -24 109 -47
125 -53 17 -5 61 -21 100 -35 158 -58 412 -105 574 -106 168 0 356 45 427 103
39 33 78 100 79 137 0 15 7 26 18 28 14 3 17 -4 17 -36 0 -22 7 -53 15 -68 25
-49 23 -67 -42 -284 -59 -196 -103 -288 -186 -384 -100 -116 -261 -214 -367
-223 -95 -9 -126 12 -355 241 -110 111 -238 237 -284 281 -108 103 -195 212
-232 291 l-30 63 -47 -33 c-55 -39 -125 -76 -145 -76 -29 0 -49 37 -42 78 4
28 3 41 -7 45 -7 2 -41 25 -75 51 -92 67 -83 76 81 75 72 0 154 -4 181 -9 39
-6 53 -5 65 6 21 20 35 12 35 -21z"/>
<path d="M2534 2426 c-115 -39 -173 -74 -249 -150 -110 -111 -135 -146 -135
-190 0 -40 10 -56 49 -75 48 -25 87 -31 206 -32 105 -1 178 16 261 60 21 12
44 21 51 21 15 0 91 94 105 129 18 47 12 129 -12 164 -62 91 -151 114 -276 73z
m198 -65 c30 -27 33 -34 33 -92 0 -88 -25 -136 -85 -160 -25 -10 -57 -18 -71
-18 -25 -1 -26 1 -22 47 5 53 -20 124 -63 175 l-25 30 48 23 c71 35 143 33
185 -5z m-344 -181 c37 -48 38 -73 4 -78 -41 -6 -109 92 -87 127 10 18 49 -5
83 -49z"/>
<path d="M1305 2148 c-79 -28 -160 -116 -166 -178 -6 -68 0 -82 66 -146 36
-35 72 -64 81 -64 9 0 12 -5 8 -12 -5 -7 -3 -8 5 -3 7 4 24 1 37 -6 20 -10 49
-10 152 -1 110 11 137 17 197 46 146 70 205 128 205 202 0 27 -6 49 -17 60
-24 24 -139 74 -193 84 -25 5 -63 13 -85 19 -51 14 -251 13 -290 -1z m152 -54
l21 -6 -20 -35 c-18 -30 -20 -45 -15 -108 4 -40 12 -85 19 -99 18 -40 -1 -51
-80 -49 -123 4 -208 68 -205 154 3 55 29 88 98 120 59 29 129 37 182 23z m144
-36 c32 -35 45 -69 35 -93 -9 -25 -40 -17 -73 18 -35 37 -46 62 -38 88 9 29
43 23 76 -13z"/>
<path d="M2626 1858 c-9 -5 -27 -26 -40 -47 -45 -71 -228 -140 -381 -145 -58
-1 -83 -8 -145 -38 -76 -37 -192 -65 -233 -55 -95 23 -166 37 -187 37 -55 0
-60 -49 -7 -71 41 -17 224 -14 318 5 41 9 102 30 136 47 50 24 80 31 145 35
94 5 203 32 280 69 28 14 56 25 61 25 18 0 107 62 118 82 22 41 -23 79 -65 56z"/>
<path d="M2224 1803 c-41 -7 -58 -93 -19 -93 19 0 75 49 75 66 0 17 -29 31
-56 27z"/>
<path d="M2031 1751 c-25 -25 -27 -56 -5 -65 9 -3 38 -6 65 -6 41 0 49 3 49
19 0 26 -30 59 -62 66 -19 5 -32 1 -47 -14z"/>
<path d="M2086 794 c-8 -41 2 -100 14 -87 15 15 16 123 1 123 -5 0 -12 -16
-15 -36z"/>
<path d="M1811 645 c-53 -56 -50 -78 4 -30 l40 34 3 -32 c2 -17 9 -38 15 -46
9 -11 16 -7 39 20 l28 33 0 -47 c0 -46 12 -62 24 -31 3 9 6 38 6 65 0 41 -3
49 -19 49 -10 0 -24 -7 -31 -15 -7 -8 -17 -12 -22 -9 -5 3 -7 8 -4 11 8 9 -13
43 -27 43 -7 0 -32 -20 -56 -45z"/>
<path d="M2345 656 c-20 -20 -24 -31 -18 -58 8 -44 21 -68 37 -68 15 0 50 37
59 63 9 24 -8 64 -33 77 -17 9 -24 7 -45 -14z m48 -27 c6 -23 -6 -63 -22 -73
-12 -8 -35 59 -27 79 8 23 43 18 49 -6z"/>
<path d="M2240 640 c-21 -21 -26 -69 -10 -105 5 -11 9 -15 9 -8 1 14 29 43 42
43 5 0 9 -9 9 -19 0 -26 16 -35 24 -15 18 48 -10 123 -46 124 -5 0 -17 -9 -28
-20z m40 -34 c0 -15 -18 -31 -26 -23 -7 7 7 37 17 37 5 0 9 -6 9 -14z"/>
<path d="M1998 589 c-10 -34 -9 -46 3 -68 19 -33 42 -38 68 -12 48 48 30 121
-29 121 -26 0 -31 -5 -42 -41z m60 -22 c-5 -50 -32 -42 -36 11 -3 41 -2 43 18
32 16 -9 20 -19 18 -43z"/>
<path d="M2154 622 c-19 -13 -34 -50 -33 -84 l1 -33 20 43 c22 48 27 48 37 0
4 -18 11 -33 16 -33 17 0 17 65 0 91 -16 25 -23 28 -41 16z"/>
<path d="M2147 404 c-3 -10 -8 -36 -12 -56 -4 -28 -11 -38 -25 -38 -13 0 -23
14 -36 52 -13 42 -19 48 -24 33 -4 -11 -4 -34 1 -53 20 -92 98 -88 114 6 7 45
-8 92 -18 56z"/>
</g>
</svg>
