<?xml version="1.0" encoding="UTF-8" standalone="no"?>
<svg xmlns="http://www.w3.org/2000/svg" width="80" height="80" viewBox="0 0 80 80">
  <!-- Background -->
  <circle cx="40" cy="40" r="38" fill="#F8F9FA" stroke="#4A00E0" stroke-width="2" />
  
  <!-- People silhouettes in a circle -->
  <!-- Person 1 (top) -->
  <circle cx="40" cy="15" r="7" fill="#4ECDC4" />
  <path d="M40,22 L40,30 L35,40 L45,40 L40,30 Z" fill="#4ECDC4" />
  
  <!-- Person 2 (right) -->
  <circle cx="60" cy="40" r="7" fill="#FF6B6B" />
  <path d="M60,47 L60,55 L55,65 L65,65 L60,55 Z" fill="#FF6B6B" />
  
  <!-- Person 3 (bottom) -->
  <circle cx="40" cy="65" r="7" fill="#FFD166" />
  <path d="M40,58 L40,50 L35,40 L45,40 L40,50 Z" fill="#FFD166" />
  
  <!-- Person 4 (left) -->
  <circle cx="20" cy="40" r="7" fill="#8E2DE2" />
  <path d="M20,47 L20,55 L15,65 L25,65 L20,55 Z" fill="#8E2DE2" />
  
  <!-- Connecting lines -->
  <line x1="25" y1="25" x2="35" y2="35" stroke="#4A00E0" stroke-width="1" stroke-dasharray="2,2" />
  <line x1="55" y1="25" x2="45" y2="35" stroke="#4A00E0" stroke-width="1" stroke-dasharray="2,2" />
  <line x1="25" y1="55" x2="35" y2="45" stroke="#4A00E0" stroke-width="1" stroke-dasharray="2,2" />
  <line x1="55" y1="55" x2="45" y2="45" stroke="#4A00E0" stroke-width="1" stroke-dasharray="2,2" />
  
  <!-- Central connecting circle -->
  <circle cx="40" cy="40" r="5" fill="#4A00E0" />
  <circle cx="40" cy="40" r="3" fill="#FFFFFF" />
</svg>
