<?xml version="1.0" encoding="UTF-8" standalone="no"?>
<svg xmlns="http://www.w3.org/2000/svg" width="100" height="100" viewBox="0 0 100 100">
  <!-- Monitor -->
  <rect x="20" y="10" width="60" height="45" rx="2" fill="#D3D3D3" stroke="#000000" stroke-width="2" />
  
  <!-- Screen -->
  <rect x="25" y="15" width="50" height="35" fill="#000080" stroke="#000000" stroke-width="1" />
  
  <!-- Screen Content (Code-like lines) -->
  <rect x="28" y="18" width="30" height="2" fill="#00FF00" />
  <rect x="28" y="22" width="40" height="2" fill="#00FF00" />
  <rect x="28" y="26" width="25" height="2" fill="#00FF00" />
  <rect x="28" y="30" width="35" height="2" fill="#00FF00" />
  <rect x="28" y="34" width="20" height="2" fill="#00FF00" />
  <rect x="28" y="38" width="38" height="2" fill="#00FF00" />
  <rect x="28" y="42" width="15" height="2" fill="#00FF00" />
  
  <!-- Computer Base -->
  <rect x="35" y="55" width="30" height="10" rx="1" fill="#A9A9A9" stroke="#000000" stroke-width="2" />
  
  <!-- Keyboard -->
  <rect x="30" y="70" width="40" height="5" rx="1" fill="#D3D3D3" stroke="#000000" stroke-width="1" />
  
  <!-- Keyboard Keys (simplified) -->
  <rect x="32" y="71" width="2" height="1.5" fill="#000000" />
  <rect x="35" y="71" width="2" height="1.5" fill="#000000" />
  <rect x="38" y="71" width="2" height="1.5" fill="#000000" />
  <rect x="41" y="71" width="2" height="1.5" fill="#000000" />
  <rect x="44" y="71" width="2" height="1.5" fill="#000000" />
  <rect x="47" y="71" width="2" height="1.5" fill="#000000" />
  <rect x="50" y="71" width="2" height="1.5" fill="#000000" />
  <rect x="53" y="71" width="2" height="1.5" fill="#000000" />
  <rect x="56" y="71" width="2" height="1.5" fill="#000000" />
  <rect x="59" y="71" width="2" height="1.5" fill="#000000" />
  <rect x="62" y="71" width="2" height="1.5" fill="#000000" />
  <rect x="65" y="71" width="2" height="1.5" fill="#000000" />
  
  <!-- Monitor Stand -->
  <rect x="45" y="55" width="10" height="15" fill="#A9A9A9" stroke="#000000" stroke-width="1" />
  
  <!-- Reflection on Screen (simplified) -->
  <polygon points="25,15 30,20 30,15" fill="#FFFFFF" opacity="0.2" />
</svg>
