<?xml version="1.0" standalone="no"?>
<!DOCTYPE svg PUBLIC "-//W3C//DTD SVG 20010904//EN"
 "http://www.w3.org/TR/2001/REC-SVG-20010904/DTD/svg10.dtd">
<svg version="1.0" xmlns="http://www.w3.org/2000/svg"
 width="400.000000pt" height="400.000000pt" viewBox="0 0 400.000000 400.000000"
 preserveAspectRatio="xMidYMid meet">

<g transform="translate(0.000000,400.000000) scale(0.100000,-0.100000)"
fill="#000000" stroke="none">
<path d="M440 2675 l0 -185 -105 0 -105 0 0 -70 0 -70 105 0 105 0 0 -188 0
-187 -106 -17 c-58 -9 -107 -18 -110 -20 -2 -3 9 -42 24 -89 19 -55 34 -85 45
-87 10 -2 17 3 17 11 0 8 19 18 51 25 87 20 80 40 77 -220 l-3 -233 -73 -3
-72 -3 6 -27 c3 -15 10 -44 15 -64 l10 -38 100 0 c171 0 169 -5 169 367 l0
278 93 26 92 26 -2 58 c-3 88 -1 86 -85 64 -40 -10 -79 -19 -85 -19 -10 0 -13
41 -13 170 l0 170 85 0 85 0 0 70 0 70 -85 0 -85 0 0 170 c0 107 4 170 10 170
6 0 10 7 10 15 0 12 -16 15 -85 15 l-85 0 0 -185z"/>
<path d="M1015 2848 c-77 -248 -136 -373 -245 -513 -25 -33 -50 -66 -54 -73
-7 -12 69 -120 86 -122 4 0 31 30 60 66 l53 66 3 -51 3 -51 165 0 164 0 0
-110 0 -110 -180 0 -180 0 0 -312 c0 -344 1 -351 60 -381 32 -16 69 -17 426
-15 376 3 393 4 414 23 32 29 57 90 65 160 3 33 8 74 11 91 l4 31 -71 13 c-83
16 -84 16 -94 -74 -4 -41 -13 -68 -27 -84 -21 -22 -23 -22 -324 -22 -290 0
-304 1 -314 19 -6 12 -10 100 -10 215 l0 196 185 0 185 0 0 245 0 245 -231 0
-231 0 32 53 c17 28 40 71 51 95 l20 42 289 0 290 0 0 -88 c0 -49 -3 -205 -7
-347 -8 -310 -1 -294 -122 -291 -92 1 -89 5 -70 -84 l11 -52 113 4 c96 2 116
6 135 23 56 51 57 62 75 723 l6 242 -335 0 c-193 0 -336 4 -336 9 0 5 11 33
25 63 14 29 25 61 25 70 0 9 10 24 22 32 29 21 18 30 -60 50 -77 19 -82 19
-87 4z"/>
<path d="M2340 2665 l0 -174 -122 -3 -123 -3 -3 -67 -3 -68 121 0 c136 0 129
6 106 -90 -34 -143 -111 -315 -204 -456 l-60 -91 43 -68 43 -68 47 64 c26 35
70 111 99 169 l51 105 3 -352 2 -353 70 0 70 0 0 388 1 387 94 -100 c51 -55
95 -98 98 -95 2 3 20 37 41 75 l37 70 -43 38 c-24 21 -85 70 -135 109 l-93 70
0 99 0 99 105 0 106 0 -3 68 -3 67 -102 3 -103 3 0 154 c0 92 4 156 10 160 6
3 10 13 10 21 0 11 -17 14 -80 14 l-80 0 0 -175z"/>
<path d="M3110 2701 l0 -129 -26 -6 c-14 -4 -85 -6 -158 -6 -72 1 -141 1 -153
1 l-23 -1 0 -195 0 -196 73 3 72 3 3 128 3 127 99 0 100 0 0 -82 c-1 -104 -23
-292 -45 -378 -60 -237 -181 -426 -358 -559 -31 -24 -57 -47 -57 -51 0 -8 60
-152 65 -158 2 -2 28 14 58 37 234 173 375 398 441 704 4 15 11 27 16 27 6 0
10 -115 10 -312 0 -294 1 -315 20 -345 11 -18 32 -36 47 -40 15 -5 100 -8 188
-8 173 0 194 5 219 53 12 23 46 186 46 218 0 12 -126 48 -139 40 -4 -3 -11
-33 -15 -67 -3 -35 -13 -73 -21 -86 -14 -20 -23 -23 -86 -23 -119 0 -109 -35
-109 380 0 232 4 361 10 365 24 15 -7 25 -77 25 l-76 0 7 53 c3 28 6 87 6 130
l0 78 138 -3 137 -3 3 -117 3 -118 70 0 69 0 -2 186 -3 186 -205 1 -205 2 -3
109 c-2 69 1 113 9 122 20 24 -1 34 -77 34 l-74 0 0 -129z"/>
</g>
</svg>
