<?xml version="1.0" standalone="no"?>
<!DOCTYPE svg PUBLIC "-//W3C//DTD SVG 20010904//EN"
 "http://www.w3.org/TR/2001/REC-SVG-20010904/DTD/svg10.dtd">
<svg version="1.0" xmlns="http://www.w3.org/2000/svg"
 width="800.000000pt" height="798.000000pt" viewBox="0 0 800.000000 798.000000"
 preserveAspectRatio="xMidYMid meet">

<g transform="translate(0.000000,798.000000) scale(0.100000,-0.100000)"
fill="#000000" stroke="none">
<path d="M5050 7714 c-305 -27 -684 -109 -851 -184 -113 -51 -144 -55 -292
-40 -105 10 -140 10 -247 -4 -476 -62 -799 -314 -907 -710 -24 -87 -24 -293 0
-361 16 -47 74 -131 83 -122 3 2 -10 35 -28 73 -29 63 -32 76 -31 164 3 285
222 579 563 754 180 92 359 142 545 153 l100 5 -70 -42 c-272 -162 -624 -588
-899 -1087 -289 -525 -408 -895 -393 -1227 7 -155 23 -220 82 -341 57 -115
110 -184 163 -213 58 -32 76 -22 20 11 -47 27 -100 93 -130 159 -57 126 -71
442 -29 638 23 105 95 329 144 448 14 34 24 62 22 62 -3 0 -27 -46 -56 -102
-57 -115 -78 -145 -54 -79 18 51 18 51 7 51 -5 0 -21 -40 -36 -90 -27 -91 -41
-118 -29 -57 25 128 88 289 207 527 210 420 462 784 724 1048 124 125 201 186
304 241 72 39 74 40 143 32 39 -5 58 -9 43 -10 -85 -4 -243 -92 -359 -199 -81
-75 -291 -307 -309 -342 l-13 -25 28 25 28 25 -27 -50 c-14 -27 -26 -55 -26
-61 0 -6 -27 -48 -59 -93 -71 -97 -128 -206 -209 -397 -155 -363 -239 -720
-247 -1049 -2 -82 -1 -130 1 -105 23 258 56 482 84 565 19 57 1 -107 -25 -228
-14 -64 -30 -171 -36 -239 -14 -149 -6 -453 16 -592 16 -107 14 -143 -4 -52
-25 127 -31 166 -40 271 -28 301 -22 538 20 783 10 63 18 117 16 119 -8 7 -58
-261 -73 -392 -27 -233 -7 -554 47 -755 11 -41 26 -84 33 -95 26 -40 56 -137
56 -180 0 -25 -11 -73 -24 -107 -21 -58 -46 -175 -122 -568 -64 -336 -32 -619
80 -705 47 -35 56 -27 18 16 -61 71 -92 165 -92 284 0 76 23 191 50 252 11 24
31 121 45 216 14 95 31 195 39 222 l13 50 7 -40 c9 -48 45 -167 76 -250 17
-44 25 -93 30 -185 4 -69 17 -170 30 -227 13 -56 21 -105 18 -108 -10 -10 -61
20 -97 57 -18 18 -58 86 -89 150 -31 65 -60 114 -64 110 -10 -10 16 -111 43
-164 43 -84 153 -178 207 -178 15 0 22 -10 27 -37 18 -100 114 -229 209 -284
28 -16 56 -29 63 -29 7 0 -23 35 -66 78 -78 78 -131 164 -146 239 -6 30 -5 33
19 33 14 0 26 5 26 10 0 6 -13 10 -30 10 -34 0 -29 -16 -60 221 -25 197 -25
206 5 92 13 -51 43 -137 66 -190 42 -97 45 -100 192 -245 82 -81 168 -158 191
-172 65 -38 149 -59 207 -51 70 10 71 25 2 25 -100 0 -199 60 -262 159 -17 26
-31 51 -31 55 0 4 21 -11 48 -33 48 -40 146 -94 195 -106 39 -10 34 -3 -23 34
-134 87 -222 263 -249 501 -13 111 -20 464 -9 447 4 -7 8 -48 8 -92 1 -220
123 -557 248 -682 29 -29 57 -53 62 -53 5 0 -15 36 -45 80 -80 117 -97 181
-103 373 -2 87 -1 184 4 215 l8 57 7 -86 c27 -324 173 -610 356 -701 53 -26
80 -32 149 -36 89 -5 118 10 43 22 -92 15 -190 164 -224 341 -18 95 -32 365
-18 365 6 0 13 -35 16 -77 12 -146 93 -352 182 -464 38 -48 135 -130 135 -114
0 3 -18 59 -40 123 -44 131 -70 264 -70 356 l1 61 25 -95 c14 -52 47 -140 73
-195 65 -133 134 -209 238 -263 105 -54 123 -59 116 -32 -4 16 -1 20 18 20 13
0 31 5 39 10 11 7 4 10 -27 10 -24 0 -43 4 -43 10 0 5 -16 16 -36 25 -44 18
-69 46 -98 110 -26 55 -56 178 -55 222 0 25 2 24 13 -12 15 -49 22 -61 104
-203 36 -62 74 -118 84 -123 11 -6 33 -9 51 -7 l32 4 -27 12 c-48 20 -68 66
-67 157 l0 80 16 -48 c15 -44 99 -154 110 -143 2 2 -16 46 -41 97 -25 51 -44
95 -42 97 7 6 73 -112 86 -153 18 -55 16 -145 -5 -184 -26 -51 -13 -57 32 -15
41 40 73 110 95 208 l11 51 10 -32 c16 -53 92 -117 172 -143 39 -12 71 -24 73
-25 2 -2 -6 -22 -18 -45 -12 -23 -19 -45 -16 -48 4 -3 24 11 45 32 l39 38 21
-69 c41 -138 53 -195 46 -231 -6 -34 -46 -82 -90 -109 -17 -10 -9 -12 48 -12
61 -1 68 1 76 22 9 23 7 85 -3 94 -3 4 -2 11 4 17 10 13 2 53 -24 123 -9 23
-18 81 -20 128 -3 55 -10 95 -21 111 -10 16 -11 24 -4 24 6 0 68 58 138 129
69 71 136 134 147 140 12 5 24 23 27 38 5 25 52 89 138 190 14 17 35 36 48 42
12 7 19 16 16 21 -3 5 -1 11 5 15 6 4 7 11 4 17 -3 5 11 27 32 49 21 21 35 41
32 44 -3 3 -86 -55 -184 -128 -238 -177 -319 -231 -442 -294 -136 -69 -167
-73 -273 -35 -606 218 -837 373 -974 656 -59 121 -59 125 7 115 53 -9 77 -5
42 7 -60 19 -78 31 -113 71 -38 42 -94 160 -84 176 2 4 25 7 51 8 l47 1 -66
13 c-97 19 -172 59 -249 131 -67 64 -154 184 -202 279 -35 68 -113 258 -139
339 -25 75 -41 86 -34 24 3 -24 10 -88 15 -143 31 -304 115 -563 247 -763 51
-78 168 -193 223 -220 25 -12 38 -22 29 -22 -51 0 -204 146 -291 279 -248 377
-346 1008 -252 1626 8 55 18 108 20 118 3 9 1 17 -4 17 -16 0 -51 -66 -67
-129 -18 -72 -39 -122 -71 -172 -26 -42 -53 -131 -108 -364 -47 -202 -56 -255
-56 -347 0 -51 -4 -78 -11 -78 -20 0 -3 250 29 440 38 218 48 320 33 320 -14
0 -9 22 41 178 50 156 170 460 210 532 33 61 75 110 93 110 7 0 24 29 39 64
29 69 55 99 99 115 l27 11 -29 -58 c-33 -66 -81 -196 -81 -220 0 -27 16 0 35
58 42 131 166 346 277 480 60 72 178 179 250 229 78 52 229 121 295 133 75 14
129 2 126 -27 -2 -24 29 -49 39 -32 11 18 48 17 48 -1 0 -12 -3 -12 -16 -1
-13 10 -17 10 -25 -2 -6 -10 -1 -20 18 -36 25 -21 29 -21 45 -6 11 10 16 24
12 35 -6 21 9 24 25 4 10 -11 8 -16 -5 -24 -15 -9 -16 -14 -6 -36 10 -23 10
-26 -9 -26 -15 0 -19 5 -15 15 6 17 -9 20 -20 4 -4 -8 -9 -7 -15 2 -6 10 -9 8
-9 -8 0 -13 5 -24 10 -24 20 -3 25 -4 38 -12 7 -5 12 -3 13 5 0 7 5 0 10 -17
5 -19 5 -31 -1 -33 -6 -2 -1 -11 10 -20 18 -16 19 -21 7 -65 -7 -27 -16 -45
-20 -41 -4 4 -7 2 -7 -4 0 -22 -16 -12 -18 11 -1 13 8 29 21 39 17 14 20 21
11 34 -14 24 -34 29 -34 10 0 -9 -6 -16 -14 -16 -8 0 -17 -6 -19 -12 -4 -10
-6 -10 -6 0 -1 18 -31 15 -31 -3 0 -9 10 -19 22 -24 14 -5 18 -10 10 -15 -9
-5 -7 -15 8 -37 l21 -29 -25 0 c-14 0 -28 5 -31 10 -3 6 -2 10 4 10 5 0 3 14
-6 31 -9 18 -13 44 -10 64 3 18 1 37 -5 43 -13 13 -28 92 -17 92 4 0 9 8 12
18 2 9 4 -5 3 -33 -1 -46 1 -50 23 -50 13 0 26 6 29 14 3 10 0 12 -11 8 -21
-8 -29 3 -15 20 9 11 9 16 -1 23 -9 5 -10 10 -2 14 6 4 1 17 -16 36 -21 24
-29 27 -44 19 -11 -5 -19 -14 -19 -20 0 -6 4 -8 9 -5 5 3 15 -2 22 -11 8 -9 9
-14 2 -10 -6 4 -14 1 -16 -5 -4 -10 -8 -9 -16 2 -10 13 -13 12 -27 -5 -23 -28
-84 -160 -85 -182 0 -16 -1 -16 -9 2 l-8 20 -7 -20 c-5 -11 -20 -51 -35 -90
-55 -139 -80 -235 -80 -299 0 -35 -7 -80 -15 -99 -8 -20 -15 -50 -15 -66 0
-16 -4 -32 -10 -36 -5 -3 -7 -12 -3 -20 3 -8 0 -15 -6 -15 -7 0 -12 15 -13 33
-1 43 -8 223 -10 267 -1 19 2 49 6 65 l8 30 -18 -25 c-11 -14 -18 -29 -16 -34
1 -4 -2 -13 -7 -20 -15 -18 -58 -183 -75 -286 -54 -328 -38 -618 45 -838 39
-102 55 -168 20 -82 -10 25 -35 81 -56 125 -91 195 -119 416 -90 720 6 59 6
59 -9 30 -9 -16 -14 -21 -11 -10 2 11 14 83 26 160 22 137 24 144 110 325 48
101 86 187 83 189 -2 2 -16 -6 -32 -20 -15 -13 6 10 45 51 84 87 173 158 258
206 l60 33 -44 1 c-106 0 -245 -59 -338 -143 -56 -52 -99 -105 -90 -113 2 -3
35 24 73 58 56 51 166 138 129 101 -46 -45 -188 -174 -218 -198 -20 -16 -37
-35 -37 -41 0 -7 -11 -19 -23 -27 -13 -9 -37 -37 -54 -64 -16 -26 -52 -84 -80
-128 -66 -104 -108 -190 -123 -245 -6 -25 -13 -53 -16 -62 -3 -10 -1 -18 3
-18 5 0 24 31 43 70 18 38 35 68 37 67 2 -2 -15 -44 -36 -94 -75 -172 -154
-444 -192 -660 -27 -151 -36 -438 -20 -594 13 -125 57 -322 98 -439 65 -187
154 -305 279 -366 41 -21 76 -35 79 -32 3 2 -14 31 -36 64 l-42 59 58 -55 58
-55 -60 80 c-72 95 -90 129 -99 184 -4 23 -12 41 -19 41 -7 0 -15 9 -18 20 -3
13 0 20 10 20 8 0 17 -8 19 -17 3 -10 44 -39 91 -65 59 -33 83 -42 78 -30 -39
91 -48 127 -52 202 -5 78 -3 91 20 141 25 52 108 146 93 106 -19 -55 -18 -64
8 -71 33 -8 45 -45 20 -63 -10 -7 -24 -13 -31 -13 -32 0 -7 -108 45 -194 l35
-59 31 36 c33 39 46 46 46 23 0 -11 17 -8 77 14 68 24 78 31 89 61 7 19 13 26
13 17 1 -10 9 -18 19 -18 13 0 14 -2 3 -9 -11 -7 -9 -13 8 -30 41 -41 18 -90
-56 -115 -50 -17 -97 -21 -89 -8 3 5 -5 15 -18 22 -21 11 -27 9 -45 -9 -12
-12 -21 -23 -21 -26 0 -10 61 -35 86 -35 19 0 25 -4 20 -15 -7 -19 -3 -19 43
5 75 38 131 129 131 214 0 17 -4 24 -14 20 -8 -3 -16 4 -19 18 -4 13 -2 25 3
26 28 10 -4 97 -63 175 -29 37 -33 47 -20 47 12 0 6 11 -22 41 -57 58 -235
142 -235 110 0 -7 -23 -11 -61 -11 -37 0 -58 4 -54 10 7 12 -15 13 -42 3 -16
-6 -15 -8 7 -13 14 -3 26 -13 28 -22 3 -13 -14 -22 -74 -40 -42 -12 -72 -24
-66 -26 6 -2 27 1 46 7 43 11 47 2 9 -22 -32 -19 -83 -64 -83 -72 0 -3 7 -5
16 -5 11 0 14 -5 9 -17 -20 -47 -43 -133 -51 -183 -7 -55 -7 -55 -15 -20 -4
19 -11 70 -15 113 -5 59 -10 77 -22 77 -11 0 -13 -8 -8 -32 4 -24 3 -29 -4
-16 -6 9 -14 43 -19 75 -5 32 -12 69 -16 83 -3 14 3 7 14 -15 11 -22 20 -50
21 -62 0 -13 5 -23 11 -23 8 0 10 17 6 53 -5 42 -4 46 4 22 11 -35 47 -81 56
-72 3 4 1 30 -6 59 -55 251 -51 316 26 393 43 43 167 125 190 125 6 0 18 -21
28 -47 60 -157 213 -325 335 -368 22 -8 40 -10 40 -5 0 5 -9 11 -20 15 -28 9
-96 89 -135 160 -41 72 -91 219 -100 295 l-7 55 24 -23 c14 -13 38 -49 53 -80
35 -72 55 -101 237 -346 81 -109 148 -194 148 -187 0 6 -17 47 -38 91 -21 44
-37 80 -35 80 1 0 24 -16 50 -37 73 -55 182 -103 249 -110 37 -3 55 -2 49 4
-5 5 -31 26 -57 46 -26 21 -57 52 -70 70 -22 31 -21 30 27 -10 50 -42 142 -90
152 -79 4 3 -19 32 -49 64 -57 60 -98 127 -98 161 0 11 18 55 40 98 29 56 55
133 90 271 27 105 54 200 60 210 8 12 10 -33 7 -168 -4 -182 -9 -214 -52 -345
-5 -15 1 -12 23 11 59 63 95 209 108 436 l6 116 86 12 c51 8 91 9 100 4 8 -5
65 -86 126 -179 l113 -170 -56 -12 c-77 -16 -141 -42 -195 -80 -46 -33 -65
-64 -27 -43 34 18 36 11 5 -22 -16 -18 -38 -44 -49 -57 l-20 -24 33 6 32 7
-15 -30 c-17 -32 -20 -90 -6 -90 5 0 13 10 17 23 7 19 9 16 19 -23 l11 -45 31
67 c19 40 51 86 78 113 50 48 77 60 51 23 -21 -30 -20 -35 8 -42 29 -7 39 -31
25 -58 -9 -17 -17 -19 -46 -15 l-36 6 6 -89 c4 -57 13 -106 26 -135 20 -45 22
-46 53 -40 40 8 95 32 103 45 4 7 13 7 25 0 23 -12 33 -13 26 -1 -3 5 14 6 37
4 32 -4 52 0 77 16 19 11 38 21 41 21 3 0 18 -24 34 -52 15 -29 30 -55 32 -57
7 -9 53 44 53 61 0 10 -11 41 -25 68 l-25 50 30 0 c26 0 30 3 25 23 -15 65
-25 113 -25 120 0 5 14 -2 31 -14 44 -31 62 -80 57 -156 -4 -64 2 -78 18 -45
14 29 88 131 95 132 3 0 -11 -84 -32 -187 -45 -215 -41 -193 -31 -193 26 0 98
350 103 495 1 22 4 31 6 21 7 -27 -14 -217 -38 -351 -51 -279 -110 -435 -202
-527 -56 -56 -105 -83 -185 -102 l-57 -14 42 -1 c54 -1 163 40 232 87 63 43
145 130 192 201 18 28 34 49 36 48 6 -7 -31 -115 -69 -202 -80 -178 -194 -327
-287 -375 -59 -31 -56 -41 5 -15 101 42 213 167 294 327 l42 83 -6 -53 c-4
-28 -23 -121 -43 -205 -32 -131 -37 -169 -37 -277 -1 -116 1 -129 26 -180 26
-52 101 -140 120 -140 18 0 6 28 -23 56 -65 61 -77 157 -35 286 29 88 55 137
144 272 36 55 85 140 109 190 29 62 41 80 37 56 -11 -62 7 -24 36 76 16 53 38
106 49 118 l21 20 0 -22 c0 -12 -4 -22 -10 -22 -5 0 -10 -9 -10 -20 0 -22 16
-27 23 -7 2 6 7 10 10 7 3 -3 -2 -44 -13 -90 -10 -47 -16 -88 -13 -92 2 -5 0
-8 -4 -8 -5 0 -15 -21 -21 -47 -36 -136 -142 -292 -241 -355 -25 -15 -38 -28
-30 -28 23 0 106 58 134 93 30 38 31 33 6 -26 -11 -25 -17 -48 -14 -50 3 -3 4
-61 4 -129 -1 -71 5 -159 13 -208 9 -47 13 -95 10 -107 -3 -11 -1 -24 5 -27 6
-4 11 -25 11 -47 0 -21 13 -77 29 -124 25 -72 55 -217 49 -243 0 -4 6 -24 15
-44 10 -21 17 -48 17 -60 0 -13 7 -32 15 -42 8 -11 15 -32 15 -47 0 -18 23
-55 70 -114 39 -49 69 -93 67 -99 -2 -6 -12 -13 -22 -14 -10 -2 -34 -20 -53
-40 -20 -20 -38 -30 -40 -24 -2 7 -8 12 -14 12 -6 0 -8 -7 -4 -15 3 -9 0 -15
-9 -15 -7 0 -26 -12 -42 -28 -16 -15 -49 -37 -73 -50 -25 -13 -79 -48 -120
-78 -101 -74 -64 -71 74 6 59 33 110 60 113 60 3 0 -5 -17 -17 -37 -17 -29 1
-16 76 57 55 53 121 111 147 129 89 61 254 126 294 116 41 -10 24 -22 -56 -39
-147 -32 -274 -112 -382 -240 -82 -97 -87 -106 -52 -106 23 1 34 10 60 53 49
79 115 150 171 180 59 32 78 21 24 -14 -35 -23 -151 -180 -152 -206 -1 -30 29
-7 87 66 83 105 200 194 291 221 77 22 260 41 265 26 2 -5 21 -10 44 -10 22
-1 46 -6 54 -12 8 -6 31 -14 51 -18 20 -4 51 -20 68 -36 18 -17 37 -30 42 -30
5 0 26 -17 46 -37 20 -21 40 -37 44 -36 5 2 8 -6 8 -18 0 -13 5 -19 13 -16 8
3 19 -10 30 -33 9 -21 30 -59 46 -86 17 -26 31 -60 31 -74 0 -15 9 -53 19 -86
11 -32 22 -88 25 -124 3 -36 12 -87 21 -114 10 -34 12 -53 5 -61 -6 -8 -10
-74 -9 -166 2 -169 -8 -290 -24 -301 -6 -3 -11 -17 -12 -30 -3 -34 -94 -341
-104 -348 -4 -3 -11 -21 -15 -40 -9 -48 -48 -140 -56 -135 -4 3 -10 -14 -14
-36 -11 -66 -58 -179 -76 -179 -12 0 -12 -2 -2 -9 15 -9 -10 -79 -68 -192 -16
-31 -26 -59 -23 -63 3 -3 1 -11 -4 -18 -6 -7 -13 -33 -16 -58 -3 -25 -28 -95
-55 -155 -27 -61 -54 -126 -61 -146 -6 -20 -21 -45 -31 -54 -12 -11 -20 -31
-20 -52 0 -18 -9 -59 -20 -90 -11 -32 -20 -61 -20 -65 0 -4 19 -8 43 -8 37 0
43 3 44 22 1 13 7 24 13 26 5 2 10 9 10 16 0 7 7 27 16 45 9 18 14 35 11 37
-3 3 3 14 13 24 11 11 16 27 13 39 -5 21 11 29 22 11 3 -6 12 -10 18 -10 7 1
2 9 -11 19 -23 20 -21 51 5 51 8 0 11 5 8 11 -4 5 0 18 8 27 8 9 22 31 31 47
17 30 17 29 11 -40 -12 -151 -17 -188 -26 -174 -4 7 -11 10 -15 6 -4 -3 -1
-13 5 -21 8 -10 9 -16 1 -21 -5 -3 -10 -31 -10 -61 0 -52 1 -54 26 -54 21 0
24 3 15 13 -6 8 -8 17 -4 20 12 13 23 7 23 -13 0 -11 5 -20 11 -20 7 0 10 12
7 30 -3 18 0 31 9 34 16 7 17 38 1 55 -10 10 -10 15 -1 18 7 2 9 11 6 20 -4
11 -2 14 5 9 7 -4 12 -4 13 1 0 4 2 18 3 31 3 26 -9 29 -23 4 -14 -23 -14 -10
1 25 17 43 19 52 26 134 7 72 10 79 49 122 23 24 49 59 58 77 24 46 28 31 11
-38 -9 -33 -16 -69 -16 -81 0 -12 -4 -21 -9 -21 -13 0 -21 -27 -31 -105 -16
-122 -34 -195 -48 -195 -10 0 -12 -7 -8 -26 5 -17 3 -23 -4 -19 -6 4 -10 -9
-10 -34 0 -37 3 -41 24 -41 15 0 27 7 30 18 5 15 77 329 111 487 57 259 97
502 115 690 6 66 24 226 41 355 16 129 34 303 40 387 26 397 -55 703 -235 888
-120 123 -273 182 -442 170 -71 -5 -99 -3 -129 9 -55 23 -98 20 -173 -13 -91
-40 -117 -45 -151 -31 -76 31 -173 245 -207 456 -16 98 -14 139 6 103 5 -9 19
-27 30 -40 18 -20 21 -21 14 -4 -19 53 -16 147 7 228 l23 82 13 -64 c13 -64
98 -259 109 -248 3 3 1 22 -5 44 -18 63 -17 64 46 42 73 -25 75 -24 29 7 -24
17 -46 44 -62 77 -30 65 -31 80 -3 72 l21 -7 -21 21 c-12 12 -21 30 -21 42 0
42 32 126 81 214 27 50 47 79 43 65 -4 -14 -21 -72 -39 -130 -18 -58 -35 -118
-39 -134 l-7 -28 38 30 c94 74 184 188 253 319 24 46 45 81 48 79 2 -3 -8 -44
-23 -93 -58 -188 -151 -325 -248 -362 -51 -20 -52 -20 -17 -20 45 -1 147 47
198 93 52 47 107 127 137 202 28 68 32 54 10 -41 -32 -138 -108 -249 -200
-292 l-50 -24 40 7 c102 15 230 101 266 179 11 22 46 72 80 110 117 135 202
298 215 415 4 33 11 60 17 60 6 0 8 -52 4 -147 -6 -165 -28 -270 -74 -355 -32
-59 -100 -131 -147 -155 -53 -28 -10 -26 53 3 67 29 140 99 184 175 103 176
167 544 155 894 -3 83 -3 141 -1 130 3 -11 18 -53 34 -93 40 -100 67 -206 84
-326 19 -130 19 -200 -1 -310 -36 -208 -126 -352 -239 -381 -21 -6 -25 -9 -12
-12 35 -9 117 29 171 78 66 60 119 138 163 239 30 69 33 72 33 39 0 -64 -22
-148 -61 -226 -20 -43 -35 -80 -33 -82 2 -3 17 8 33 23 88 85 123 325 86 600
-13 95 -13 111 0 120 38 29 75 201 75 353 0 225 -117 570 -290 853 -78 127
-89 152 -109 252 -39 195 -170 441 -341 643 -114 134 -356 363 -547 518 -300
242 -615 382 -1000 443 -94 15 -472 27 -573 18z m401 -34 c113 -11 292 -43
379 -66 147 -41 392 -137 480 -189 30 -18 80 -47 111 -65 122 -71 259 -181
386 -311 143 -146 218 -255 394 -564 62 -110 150 -258 195 -330 145 -228 264
-432 313 -537 53 -113 125 -303 135 -358 3 -19 -9 6 -27 55 -106 281 -203 462
-431 800 -136 201 -178 270 -170 278 4 3 -14 32 -38 64 -25 32 -84 118 -133
192 -48 74 -107 159 -131 188 -43 53 -48 64 -44 92 1 9 -4 12 -14 8 -10 -4
-16 -1 -16 8 0 8 -7 15 -15 15 -8 0 -15 6 -15 13 0 6 -24 30 -53 53 -29 23
-74 68 -98 100 -25 32 -51 59 -59 60 -35 2 -41 5 -35 13 3 6 -5 15 -17 22 -13
7 -40 27 -60 45 -43 38 -109 74 -136 74 -11 0 -39 18 -62 39 -42 38 -80 58
-80 41 0 -4 14 -13 30 -20 48 -20 26 -24 -24 -5 -34 13 -44 21 -36 30 8 9 -5
18 -48 34 -66 24 -76 25 -67 11 3 -5 -3 -10 -14 -10 -12 0 -21 5 -21 10 0 6
-10 11 -22 11 -18 1 -16 3 7 8 29 6 29 7 -22 24 -60 20 -73 21 -73 7 0 -5 7
-10 15 -10 8 0 15 -4 15 -9 0 -4 -11 -6 -25 -3 -14 2 -25 11 -25 19 0 9 -5 11
-12 6 -21 -12 -68 -9 -68 5 0 8 8 10 24 6 13 -3 27 -1 30 5 4 6 1 11 -6 11 -7
0 -30 3 -50 6 -34 6 -38 4 -38 -15 0 -11 -4 -21 -9 -21 -4 0 -6 12 -3 28 5 27
5 27 -17 8 -11 -11 -21 -14 -21 -8 0 7 -7 12 -15 12 -7 0 -18 8 -24 18 -9 16
-11 15 -31 -6 -13 -13 -19 -30 -16 -39 5 -13 4 -14 -9 -3 -11 9 -12 17 -4 32
13 23 4 52 -14 45 -6 -2 -20 0 -29 5 -12 5 -18 5 -18 -2 0 -5 -7 -10 -16 -10
-10 0 -14 6 -10 15 4 10 -1 15 -14 15 -11 0 -20 -6 -20 -12 0 -9 -3 -9 -8 -3
-4 6 -20 12 -37 13 -28 1 -29 1 -11 -13 18 -13 18 -16 2 -40 -22 -33 -29 -32
-21 4 4 20 1 34 -11 46 -16 16 -18 16 -35 -7 l-18 -23 6 23 c4 15 1 22 -9 22
-19 0 -16 -34 5 -58 20 -22 21 -30 5 -29 -7 0 -22 -1 -32 -1 -18 -2 -18 -4 4
-27 23 -24 37 -75 21 -75 -5 0 -13 15 -19 33 -9 24 -10 26 -7 5 4 -22 2 -25
-15 -21 -24 7 -25 11 -3 36 17 18 17 20 -11 42 -16 13 -36 20 -47 18 -11 -3
-19 0 -19 7 0 7 6 10 14 7 10 -4 18 5 25 25 14 38 14 35 -5 42 -11 4 -15 2
-11 -8 3 -8 -1 -17 -8 -20 -10 -4 -14 1 -12 17 1 17 -3 21 -18 20 -11 -1 -54
-2 -95 -2 -238 3 -364 -12 -476 -57 -33 -13 -66 -24 -72 -24 -6 0 -15 -7 -20
-16 -7 -13 -15 -14 -55 -4 -56 15 -159 -3 -258 -45 -89 -37 -118 -45 -124 -35
-7 11 89 56 160 75 31 8 93 19 138 25 45 6 154 29 242 50 88 22 212 46 275 54
141 17 362 20 501 6z m-211 -50 c0 -5 -9 -10 -19 -10 -11 0 -21 -5 -23 -12 -3
-7 -10 -8 -17 -3 -10 6 -6 11 15 21 37 16 44 16 44 4z m-85 -41 c-5 -15 -4
-19 5 -14 7 4 10 1 8 -11 -2 -12 3 -19 12 -19 8 0 14 7 12 16 -2 15 36 35 47
24 2 -3 -1 -5 -7 -5 -19 0 -14 -22 10 -47 20 -21 23 -22 39 -7 17 15 18 15 7
-14 -10 -25 -14 -28 -29 -19 -10 6 -16 14 -13 18 9 15 -36 31 -51 19 -9 -8
-17 -7 -27 4 -8 7 -23 16 -34 18 -10 2 -18 10 -16 16 1 7 -3 11 -9 10 -6 -2
-14 3 -16 10 -6 15 19 16 35 0 9 -9 13 -7 18 5 9 25 17 21 9 -4z m378 -26 c-5
-13 -2 -15 11 -10 11 4 19 1 23 -11 4 -9 14 -22 22 -29 11 -8 12 -12 4 -13 -7
0 -13 -12 -13 -26 0 -35 23 -26 31 12 4 16 7 23 8 16 0 -7 5 -11 10 -8 13 8
61 -11 61 -24 0 -6 -5 -8 -10 -5 -12 7 -80 -15 -80 -26 0 -4 6 -10 13 -12 7
-3 6 -6 -5 -6 -9 -1 -20 4 -24 10 -3 6 -19 9 -35 5 -21 -4 -29 -2 -29 8 0 25
12 46 26 46 8 0 14 11 14 27 0 25 -1 25 -19 9 -17 -16 -19 -16 -23 2 -3 11 -1
27 4 36 12 21 19 21 11 -1z m80 -4 c-6 -6 -17 -8 -24 -3 -9 5 -8 9 7 14 23 9
31 3 17 -11z m-543 -36 c148 -42 364 -158 503 -271 21 -17 44 -29 52 -26 7 3
16 1 20 -5 4 -7 0 -8 -11 -4 -9 3 47 -56 124 -132 78 -76 144 -146 147 -154 3
-9 24 -36 46 -61 37 -41 36 -38 -12 30 -29 41 -68 92 -86 113 -44 49 -42 60 3
16 102 -97 285 -340 399 -529 107 -177 215 -423 255 -578 28 -111 24 -137 -5
-32 -13 47 -35 119 -50 160 -31 86 -194 425 -219 455 -10 12 -8 1 7 -30 84
-173 193 -606 232 -916 18 -146 18 -142 5 -134 -6 4 -11 -8 -11 -27 -1 -18 -5
23 -10 92 -15 245 -74 525 -149 711 -24 57 -51 129 -60 159 -34 104 -22 5 19
-159 51 -203 65 -329 58 -506 -5 -126 -31 -301 -56 -380 -16 -50 -12 -15 10
90 26 132 37 437 19 567 -19 137 -63 300 -114 420 -25 59 -46 110 -46 113 0 3
-8 18 -18 33 -11 15 -36 56 -57 92 -217 369 -612 730 -903 825 -82 26 -83 12
-1 -18 100 -37 216 -117 169 -117 -5 0 -10 4 -10 8 0 16 -47 31 -59 19 -8 -8
-11 -7 -11 3 0 7 -3 11 -6 7 -4 -3 -22 5 -40 20 -19 14 -34 21 -34 16 0 -11
108 -116 241 -235 48 -43 101 -99 118 -124 30 -46 43 -46 20 -1 -14 27 -12 25
43 -43 251 -312 414 -659 492 -1045 38 -187 50 -336 43 -550 -9 -299 -57 -503
-148 -624 -29 -39 -55 -69 -57 -67 -2 2 8 26 21 53 28 55 63 171 107 353 61
253 73 418 45 604 -8 55 -15 117 -15 138 0 21 -4 38 -10 38 -6 0 -11 -65 -12
-172 l-1 -173 -8 195 c-11 277 -38 417 -125 638 -26 65 -52 124 -59 132 -6 8
-25 39 -41 67 -16 29 -33 53 -38 53 -4 0 -6 -6 -3 -12 12 -32 128 -420 141
-473 8 -33 22 -103 30 -155 24 -158 27 -186 17 -170 -9 16 -45 175 -81 365
-55 289 -203 594 -418 863 -85 106 -282 303 -368 367 -109 82 -215 123 -324
127 l-55 2 70 6 c99 9 177 1 275 -27z m418 17 c-14 -22 -24 -19 -15 5 4 8 11
15 17 15 6 0 6 -7 -2 -20z m-833 -16 c-72 -18 -137 -54 -165 -94 -27 -38 -21
-38 36 3 43 30 51 32 137 33 l92 2 -80 -7 c-64 -6 -91 -14 -136 -39 -63 -36
-98 -39 -219 -16 l-75 13 90 -4 c50 -2 97 -6 106 -10 12 -4 22 4 37 28 38 65
111 103 202 105 27 0 22 -3 -25 -14z m846 -32 c-6 -11 -6 -24 0 -35 11 -18 2
-22 -19 -8 -10 6 -11 13 -1 34 7 15 16 27 21 27 5 0 4 -8 -1 -18z m-55 -4 c5
-7 7 -25 6 -41 -2 -20 1 -28 10 -24 8 3 14 -5 14 -19 3 -36 13 -56 24 -49 6 4
8 15 5 26 -9 28 27 24 100 -11 42 -20 51 -28 30 -24 l-30 5 24 -18 c14 -10 34
-26 45 -35 l21 -17 -21 -1 c-12 0 -25 8 -28 17 -5 11 -10 13 -17 6 -7 -7 -24
-8 -46 -3 -41 10 -60 24 -44 34 6 4 11 2 11 -3 0 -6 10 -11 23 -11 l22 1 -23
18 c-12 11 -18 21 -12 23 6 2 1 9 -10 16 -19 11 -21 10 -26 -17 l-6 -30 -33
16 c-34 16 -50 52 -45 101 1 13 -4 30 -10 38 -8 9 -9 14 -2 14 6 0 14 -5 18
-12z m-653 -35 c-7 -2 -19 -2 -25 0 -7 3 -2 5 12 5 14 0 19 -2 13 -5z m929
-10 c5 -26 -14 -73 -29 -73 -11 0 -10 7 2 31 9 17 14 33 11 37 -3 3 -6 1 -6
-4 0 -5 -9 -10 -20 -11 -25 -2 -21 20 5 29 31 10 33 9 37 -9z m-813 -9 c1 -1
1 -7 0 -12 -2 -5 -26 -1 -54 9 l-50 18 50 -6 c28 -3 52 -7 54 -9z m843 -16
c-9 -9 -12 -7 -12 12 0 19 3 21 12 12 9 -9 9 -15 0 -24z m-2369 -35 c-66 -22
-103 -40 -103 -49 0 -8 -9 -14 -19 -14 -10 0 -22 -7 -25 -16 -11 -29 2 -27 44
6 50 40 52 26 3 -22 -50 -47 -193 -151 -200 -145 -2 3 7 13 21 22 24 16 38 65
19 65 -5 0 -37 -23 -73 -51 -36 -28 -78 -60 -95 -72 -28 -21 -28 -20 9 28 49
64 144 143 230 190 73 41 226 94 266 94 14 0 -21 -16 -77 -36z m1645 2 c75
-36 167 -94 159 -101 -2 -2 -45 19 -95 47 -50 28 -96 48 -102 44 -6 -4 -9 -1
-8 6 2 7 -6 15 -17 17 -26 5 -44 22 -24 22 8 0 47 -16 87 -35z m779 -5 c3 -11
10 -20 17 -19 6 1 20 1 31 0 19 -2 19 -3 3 -15 -10 -7 -14 -17 -10 -22 4 -4
-2 -2 -13 6 -11 8 -24 21 -28 28 -13 20 -29 14 -22 -9 7 -21 6 -21 -15 -6 -12
8 -29 13 -37 10 -13 -5 -13 -2 -4 15 9 18 22 24 64 31 5 0 11 -8 14 -19z
m-1126 -23 c114 -50 247 -147 391 -286 294 -283 493 -573 633 -924 42 -106
111 -345 102 -354 -2 -2 -23 54 -47 124 -53 158 -135 353 -199 470 -50 93
-190 297 -198 290 -2 -3 39 -92 92 -198 53 -107 89 -185 81 -174 -8 11 -36 49
-62 85 -109 149 -140 188 -205 255 -37 39 -70 80 -74 93 -3 12 -10 20 -14 18
-4 -3 -21 -1 -37 4 l-29 10 33 -5 c34 -5 41 5 17 25 -8 7 -15 9 -15 6 0 -4 -7
0 -16 9 -12 11 -13 20 -6 27 7 7 46 -35 125 -134 107 -134 165 -198 142 -158
-88 159 -241 378 -340 490 -122 136 -304 277 -422 324 -63 26 -73 26 -52 -1
11 -14 9 -13 -13 2 -15 11 -28 23 -28 28 0 17 71 4 141 -26z m239 -26 c0 -12
-20 -25 -27 -18 -7 7 6 27 18 27 5 0 9 -4 9 -9z m394 -26 c16 -15 33 -22 44
-18 14 5 13 3 -3 -10 -18 -14 -22 -13 -46 7 -29 22 -44 46 -30 46 4 0 20 -11
35 -25z m565 18 c-1 -5 -1 -17 0 -28 1 -17 3 -18 11 -5 8 12 10 11 10 -7 0
-24 15 -39 24 -24 4 5 2 13 -4 16 -8 5 -8 11 0 20 8 10 7 16 -7 24 -16 9 -16
10 5 11 21 0 23 -4 17 -28 -4 -21 0 -33 16 -47 21 -19 21 -19 35 0 13 17 14
17 14 1 0 -9 6 -24 14 -32 17 -16 30 -19 21 -4 -12 19 12 10 34 -14 20 -21 20
-24 5 -30 -10 -4 -25 1 -37 11 -20 17 -20 17 -13 -1 5 -15 4 -17 -8 -7 -8 6
-18 10 -22 9 -5 -2 -11 2 -12 7 -10 28 -24 45 -33 40 -5 -4 -9 -2 -9 4 0 6 -7
8 -15 5 -8 -4 -23 0 -32 7 -9 8 -19 12 -22 9 -8 -7 -14 38 -7 56 6 15 17 20
15 7z m-433 -42 c21 -15 48 -38 58 -50 l19 -21 -29 15 c-17 8 -41 26 -54 40
-13 14 -29 25 -36 25 -7 0 -16 5 -19 10 -12 20 23 9 61 -19z m-496 4 c0 -12
-19 -12 -23 0 -4 9 -1 12 9 8 7 -3 14 -7 14 -8z m1050 11 c0 -3 -4 -8 -10 -11
-5 -3 -10 -1 -10 4 0 6 5 11 10 11 6 0 10 -2 10 -4z m-1029 -19 c-6 -8 -8 -17
-4 -20 3 -4 -1 -7 -10 -7 -15 0 -15 3 -5 20 7 11 17 20 22 20 4 0 3 -6 -3 -13z
m425 -24 c-10 -10 -19 5 -10 18 6 11 8 11 12 0 2 -7 1 -15 -2 -18z m223 13 c9
-11 6 -12 -14 -8 -14 2 -25 8 -25 13 0 14 26 11 39 -5z m-604 -20 c17 7 30
-15 17 -28 -14 -14 -42 7 -41 31 0 9 3 11 5 4 3 -7 11 -10 19 -7z m218 -37
c-3 -10 -12 -19 -20 -19 -12 0 -13 3 -3 15 6 8 9 19 5 24 -3 6 0 8 8 5 9 -3
13 -13 10 -25z m777 -110 c173 -137 480 -437 610 -594 45 -55 121 -159 169
-230 292 -436 415 -847 385 -1291 l-9 -129 -6 215 c-5 178 -11 237 -33 343
-68 328 -208 635 -426 937 -113 156 -153 203 -373 434 -147 153 -312 306 -333
306 -4 0 5 -14 22 -32 23 -25 18 -23 -23 11 -29 23 -59 44 -65 45 -7 1 -23 8
-36 14 -12 7 -27 10 -32 7 -6 -3 -7 1 -4 9 4 10 1 16 -10 16 -8 0 -20 9 -26
20 -6 11 -16 17 -25 14 -8 -4 -15 -1 -15 5 0 19 54 8 100 -22 l45 -28 -50 47
c-67 63 -48 49 135 -97z m136 104 c-3 -8 2 -13 12 -13 27 0 84 -39 89 -61 4
-15 8 -17 14 -8 6 11 9 10 15 -4 3 -9 16 -17 29 -17 13 0 25 -7 29 -15 3 -8
11 -15 19 -15 14 0 48 -35 67 -69 14 -27 -1 -27 -25 -1 -20 22 -40 27 -29 8 4
-7 -2 -4 -14 6 -21 18 -21 20 -4 32 16 12 15 13 -4 14 -12 0 -25 7 -28 16 -4
10 -13 13 -25 9 -13 -4 -27 1 -39 13 -10 10 -23 17 -29 15 -6 -2 -10 3 -9 13
1 18 -29 42 -40 31 -4 -4 0 -13 9 -20 12 -9 14 -16 7 -27 -16 -23 -43 16 -30
41 14 25 12 32 -5 25 -10 -4 -20 3 -27 19 -6 14 -15 25 -20 25 -4 0 -8 4 -8
10 0 6 10 5 25 -2 15 -7 24 -17 21 -25z m-1731 5 c2 -13 14 -75 25 -138 11
-63 27 -146 35 -185 9 -38 23 -107 32 -152 9 -46 20 -83 25 -83 4 0 5 12 3 28
-5 26 -25 179 -28 214 -1 9 -5 14 -9 12 -9 -6 -23 45 -14 53 3 4 6 -1 6 -10 0
-20 11 -22 28 -5 9 9 12 9 12 -1 0 -7 10 -27 22 -44 17 -24 18 -28 4 -18 -15
13 -19 13 -26 0 -7 -10 -4 -16 10 -21 10 -4 21 -16 25 -27 9 -30 20 -26 32 12
11 37 2 75 -24 94 -15 11 -15 14 -1 30 8 10 13 25 10 33 -4 12 -2 13 9 2 11
-10 11 -16 1 -32 -16 -26 -15 -35 2 -21 18 15 22 7 21 -54 0 -27 4 -53 8 -56
24 -18 11 -448 -19 -629 -6 -34 -6 -34 -16 -10 -29 77 -136 572 -154 711 -4
30 -11 61 -16 69 -14 23 -1 -398 17 -536 9 -65 27 -165 40 -220 20 -84 130
-469 166 -578 5 -16 7 -31 5 -34 -6 -5 -95 274 -141 443 -66 240 -85 354 -114
685 l-8 95 -2 -120 c-1 -86 -6 -125 -16 -139 -8 -11 -12 -30 -9 -46 4 -17 0
-32 -10 -42 -11 -11 -16 -40 -18 -99 -2 -50 -7 -82 -13 -79 -5 3 -8 15 -7 27
5 36 -9 49 -23 22 -11 -20 -13 -5 -14 105 0 78 -5 134 -12 142 -6 8 -9 33 -6
61 24 223 53 358 107 486 33 80 46 93 55 55z m1042 1 c10 -8 27 -21 37 -29 18
-14 19 -13 12 5 -6 18 -5 18 7 5 18 -18 32 -60 20 -60 -5 0 -27 18 -48 40 -22
22 -44 39 -50 36 -6 -2 -19 2 -29 10 -17 12 -16 13 8 10 14 -1 34 -9 43 -17z
m-701 -107 c40 -67 98 -190 226 -477 44 -99 110 -238 145 -309 103 -206 109
-233 15 -73 -102 174 -150 265 -187 355 -19 48 -35 83 -34 77 0 -27 78 -337
86 -345 3 -3 3 22 -1 55 -4 38 -3 54 3 45 63 -103 148 -272 138 -275 -19 -5
-105 -25 -111 -25 -3 0 -7 12 -7 28 -1 24 -2 23 -8 -8 -7 -32 -8 -29 -15 30
-12 97 -92 456 -131 583 -18 62 -50 150 -70 197 -33 76 -50 109 -118 230 l-19
35 25 -30 c14 -16 43 -58 63 -93z m421 45 c40 -34 105 -100 144 -147 40 -47
93 -110 119 -140 67 -80 103 -130 98 -135 -7 -7 -98 93 -218 239 -58 71 -134
155 -169 187 -85 78 -65 75 26 -4z m-83 34 c66 -41 342 -369 430 -511 62 -99
102 -175 88 -166 -5 3 -79 90 -163 193 -84 104 -197 241 -251 306 -54 64 -98
126 -98 136 0 11 -15 28 -32 40 -18 11 -27 21 -19 21 7 0 28 -9 45 -19z m191
3 c14 -9 25 -23 25 -32 0 -13 -3 -13 -19 2 -11 10 -24 16 -28 13 -5 -3 -10 3
-10 14 -2 23 1 23 32 3z m495 -15 c0 -6 -4 -7 -10 -4 -5 3 -10 11 -10 16 0 6
5 7 10 4 6 -3 10 -11 10 -16z m-1046 -231 c3 -15 2 -29 -3 -32 -12 -8 -1 -65
13 -60 6 2 16 -12 23 -33 10 -34 10 -36 -3 -19 -13 18 -14 14 -14 -40 1 -32 7
-88 15 -124 8 -36 18 -135 21 -220 7 -160 -3 -510 -15 -510 -3 0 -4 126 -3
281 3 244 1 301 -17 432 -29 203 -35 238 -70 406 -17 79 -31 148 -30 155 0 14
75 -199 83 -236z m834 202 c-2 -7 -10 1 -17 16 -12 27 -11 28 4 12 10 -9 16
-21 13 -28z m537 20 c3 -5 1 -10 -4 -10 -6 0 -11 5 -11 10 0 6 2 10 4 10 3 0
8 -4 11 -10z m-36 -24 c7 -6 21 -11 30 -11 9 0 17 -10 19 -23 4 -24 48 -60 60
-47 4 4 1 10 -5 12 -7 3 -13 9 -13 14 0 18 16 8 33 -20 12 -21 22 -28 37 -24
16 4 18 8 9 19 -9 11 -9 14 0 14 6 0 14 -7 17 -15 4 -8 11 -15 16 -15 6 0 8 7
4 15 -8 21 6 19 26 -4 20 -23 32 -61 20 -61 -5 0 -17 9 -27 20 -14 15 -21 17
-31 9 -9 -7 -25 -8 -41 -4 -16 5 -34 9 -40 11 -17 3 -110 70 -147 105 -28 27
-28 28 -5 22 13 -3 30 -11 38 -17z m71 14 c0 -5 -2 -10 -4 -10 -3 0 -8 5 -11
10 -3 6 -1 10 4 10 6 0 11 -4 11 -10z m-850 -20 c0 -5 -5 -10 -11 -10 -5 0 -7
5 -4 10 3 6 8 10 11 10 2 0 4 -4 4 -10z m134 -79 c-2 -3 -18 9 -35 25 l-32 29
7 -40 c7 -39 7 -39 -11 -22 -21 20 -25 77 -5 70 8 -4 10 1 5 13 -3 11 12 -1
34 -26 23 -25 39 -47 37 -49z m169 59 c-6 -24 -10 -24 -43 -4 -22 14 -23 15
-4 11 12 -3 28 -1 35 4 8 5 15 9 16 9 0 0 -1 -9 -4 -20z m-690 -80 c4 0 3 9
-3 20 -19 35 71 -33 153 -116 l75 -77 -23 -21 c-17 -16 -20 -24 -11 -32 6 -6
18 -8 25 -6 8 3 11 0 8 -5 -11 -18 -56 -12 -62 8 -4 11 -12 19 -18 19 -7 0
-18 9 -25 20 -7 11 -18 20 -25 20 -9 0 -9 -2 -1 -8 10 -6 37 -62 164 -337 10
-22 43 -93 73 -157 31 -65 54 -118 52 -118 -2 0 -27 44 -56 98 -29 53 -90 167
-137 252 -47 85 -118 220 -160 300 -41 80 -86 165 -99 190 l-24 45 43 -48 c24
-26 47 -47 51 -47z m928 57 c-10 -9 -11 -8 -5 6 3 10 9 15 12 12 3 -3 0 -11
-7 -18z m172 -50 c58 -45 36 -44 -32 2 -34 23 -61 37 -61 31 0 -5 5 -10 12
-10 6 0 8 -3 5 -7 -9 -9 -47 27 -47 44 0 17 67 -15 123 -60z m-686 23 c13 -23
27 -32 56 -37 39 -6 54 -17 37 -28 -5 -3 -10 0 -10 7 0 9 -3 9 -10 -2 -7 -11
-2 -22 16 -41 13 -14 21 -28 18 -32 -5 -5 -144 147 -144 159 0 15 22 -1 37
-26z m293 10 c0 -5 -2 -10 -4 -10 -3 0 -8 5 -11 10 -3 6 -1 10 4 10 6 0 11 -4
11 -10z m65 -30 c3 -11 9 -19 13 -19 19 3 33 -2 28 -10 -3 -5 -17 -8 -31 -8
-20 0 -25 4 -25 26 0 19 -3 22 -9 12 -12 -19 -30 -5 -24 19 4 15 9 17 23 10
10 -6 21 -19 25 -30z m-1007 -165 l-1 -50 -8 45 c-4 25 -7 79 -7 120 l1 75 7
-70 c4 -38 8 -92 8 -120z m1236 165 c17 -6 26 -6 26 0 0 16 151 -107 193 -157
20 -25 37 -50 37 -55 0 -10 -11 -1 -153 120 -48 41 -90 71 -95 68 -5 -3 -17 3
-27 14 -20 23 -17 24 19 10z m-440 -41 c-2 -4 4 -13 15 -18 25 -14 51 -66 51
-101 0 -21 6 -29 25 -34 15 -4 22 -11 19 -20 -3 -8 -1 -17 5 -21 18 -10 12
-25 -9 -25 -11 0 -20 7 -20 15 0 9 -7 18 -15 21 -8 4 -15 12 -15 19 0 7 -6 16
-12 18 -10 4 -10 8 1 15 11 8 8 18 -14 55 -14 25 -34 49 -44 52 -12 4 -18 15
-17 34 1 27 2 28 18 14 10 -9 15 -19 12 -24z m296 -74 c9 6 9 2 1 -14 -9 -16
-9 -21 0 -21 7 0 21 -7 31 -17 17 -15 18 -15 18 3 0 16 2 17 10 4 14 -22 12
-40 -6 -40 -20 0 -45 25 -36 35 4 5 -1 5 -11 2 -13 -5 -20 0 -28 21 -6 15 -22
43 -35 62 -25 35 -25 35 10 -3 20 -23 40 -36 46 -32z m549 51 c10 -12 8 -13
-8 -9 -12 3 -18 9 -15 14 7 12 10 11 23 -5z m-545 -27 c-8 -13 -21 -11 -27 5
-4 10 0 12 14 9 10 -3 16 -9 13 -14z m729 -11 c-13 -12 -25 -19 -29 -15 -10
10 16 37 34 37 13 0 12 -4 -5 -22z m-2541 -15 c-38 -54 -121 -219 -146 -291
-31 -88 -42 -110 -69 -139 -11 -13 -18 -26 -14 -29 3 -3 -2 -15 -12 -26 -10
-10 -22 -41 -25 -69 -4 -27 -11 -49 -15 -49 -12 0 -17 -19 -56 -230 -34 -179
-35 -191 -37 -455 l-1 -270 -10 195 c-20 410 47 760 207 1078 70 140 176 312
192 312 3 0 -3 -12 -14 -27z m2427 -3 c6 0 11 -7 11 -15 0 -8 -3 -15 -7 -15
-13 0 -43 34 -43 49 1 14 2 14 14 -1 7 -10 18 -18 25 -18z m-2531 -15 c-6 -14
-13 -23 -15 -21 -5 5 15 46 22 46 3 0 -1 -11 -7 -25z m1632 5 c0 -11 -2 -20
-5 -20 -2 0 -9 9 -15 20 -9 16 -8 20 5 20 8 0 15 -9 15 -20z m1662 -170 c176
-207 298 -433 333 -612 12 -63 6 -92 -9 -50 -14 36 -238 424 -319 552 -23 36
-65 97 -93 135 -48 65 -94 144 -94 162 0 13 99 -88 182 -187z m-2908 55 c-18
-111 -18 -485 1 -655 8 -74 28 -184 45 -245 16 -60 30 -119 29 -130 -1 -11 -5
-2 -11 20 -5 22 -23 87 -39 145 -74 272 -86 729 -23 933 12 38 11 9 -2 -68z
m-413 52 c-11 -29 -51 -95 -51 -84 0 11 49 107 55 107 2 0 1 -10 -4 -23z
m2624 12 c12 -19 -5 -23 -22 -6 -16 16 -16 17 -1 17 9 0 20 -5 23 -11z m-575
-19 c0 -10 -31 -23 -38 -15 -8 7 19 35 29 29 5 -3 9 -9 9 -14z m558 -275 c128
-166 218 -311 316 -505 95 -190 161 -339 153 -346 -2 -3 -12 17 -22 43 -29 77
-169 353 -242 475 -138 235 -217 342 -360 489 -57 58 -103 110 -103 115 0 18
184 -175 258 -271z m55 243 c14 -13 45 -37 69 -55 44 -31 118 -113 101 -113
-10 1 -211 190 -201 190 4 0 18 -10 31 -22z m-1807 -408 l-15 -235 4 175 c3
96 6 245 6 330 l2 155 9 -95 c6 -65 4 -169 -6 -330z m1212 385 c-3 -3 -13 -2
-22 1 -14 5 -15 9 -4 15 13 8 36 -6 26 -16z m-2308 -5 c0 -17 -2 -19 -14 -8
-14 13 -12 28 5 28 5 0 9 -9 9 -20z m180 -50 c-6 -11 -13 -20 -16 -20 -2 0 0
9 6 20 6 11 13 20 16 20 2 0 0 -9 -6 -20z m2160 1 c0 -11 7 -26 15 -35 19 -18
19 -26 1 -26 -7 0 -19 14 -26 30 -7 17 -18 30 -24 30 -6 0 -4 5 4 10 22 14 30
12 30 -9z m-2081 -155 c-33 -87 -75 -215 -95 -284 -43 -156 -92 -440 -100
-582 -6 -95 7 -323 23 -405 3 -16 2 -27 -1 -24 -3 3 -15 60 -26 125 -36 217
-23 488 36 749 25 113 98 345 141 449 24 57 73 140 79 133 2 -2 -24 -74 -57
-161z m2429 72 c68 -97 75 -108 68 -108 -6 0 -109 137 -125 168 -24 45 0 20
57 -60z m-274 15 c4 -9 1 -20 -6 -25 -10 -5 -8 -8 5 -8 10 0 15 -4 12 -10 -3
-5 -15 -10 -26 -10 -16 0 -19 4 -14 21 5 15 4 19 -4 15 -15 -10 -14 7 1 22 16
16 25 15 32 -5z m17 -72 c-8 -5 -10 -14 -5 -22 6 -11 4 -11 -10 0 -13 11 -14
16 -4 22 7 5 18 9 23 9 6 0 4 -4 -4 -9z m39 -71 c0 -5 -5 -10 -11 -10 -5 0 -7
5 -4 10 3 6 8 10 11 10 2 0 4 -4 4 -10z m-795 -96 c22 -32 81 -113 132 -181
51 -68 87 -123 82 -123 -6 0 -35 7 -65 16 -63 18 -64 20 -165 253 -59 137 -57
140 16 35z m1140 40 c9 -15 12 -23 6 -20 -11 7 -35 46 -28 46 3 0 12 -12 22
-26z m-487 -94 c33 -91 72 -234 72 -259 -1 -9 -23 52 -49 134 -71 219 -84 295
-23 125z m656 -188 c65 -121 231 -490 224 -498 -2 -2 -37 72 -77 164 -41 92
-110 237 -153 322 -44 85 -76 151 -70 145 5 -5 40 -66 76 -133z m-2244 88 c0
-5 -4 -10 -10 -10 -5 0 -10 5 -10 10 0 6 5 10 10 10 6 0 10 -4 10 -10z m5 -72
c17 -60 18 -68 6 -68 -4 0 -11 19 -14 42 -3 24 -11 44 -16 46 -14 5 -15 32 -1
32 5 0 16 -23 25 -52z m2742 -78 c27 -41 84 -136 125 -210 92 -165 100 -180
94 -180 -2 0 -34 55 -72 123 -37 67 -105 179 -151 250 -46 70 -83 130 -83 133
0 9 29 -30 87 -116z m251 -35 c146 -261 231 -496 257 -705 9 -74 20 -153 25
-175 5 -22 7 -41 5 -43 -7 -8 -35 103 -50 203 -40 250 -135 521 -264 747 -34
60 -61 111 -61 115 0 12 24 -26 88 -142z m-3439 -80 c7 -60 19 -138 27 -173
18 -82 20 -75 -23 -105 -21 -14 -65 -50 -98 -81 -33 -30 -61 -53 -63 -51 -3 3
21 114 37 175 6 19 13 48 16 63 3 15 10 25 15 22 6 -3 10 -2 10 4 0 5 -4 11
-9 13 -12 4 11 121 41 206 13 36 25 57 29 50 3 -7 12 -62 18 -123z m1647 40
c54 -16 88 -47 199 -180 78 -95 126 -187 133 -255 4 -45 17 -62 34 -45 3 3 -5
48 -17 100 -12 52 -19 95 -16 95 10 -1 117 -181 133 -225 21 -54 32 -135 19
-135 -12 0 -48 45 -56 69 -5 16 -37 39 -177 127 -27 16 -48 32 -48 36 0 4 9
13 20 20 11 7 20 15 20 18 0 3 -51 5 -113 5 -94 0 -118 3 -141 19 -25 16 -27
20 -12 28 9 5 21 6 28 2 6 -4 8 -3 4 4 -3 6 -20 13 -36 17 -32 7 -35 16 -96
230 -9 33 -19 66 -21 73 -7 17 80 16 143 -3z m-166 -169 c0 -14 -34 34 -69 95
-51 92 -35 91 19 -1 27 -47 50 -89 50 -94z m-1274 -21 c8 -31 13 -60 10 -63
-9 -9 -36 65 -36 99 0 44 8 32 26 -36z m673 -111 c-9 -97 -32 -188 -50 -199
-5 -4 -9 5 -9 19 0 14 5 28 10 31 7 4 7 12 0 24 -6 13 -5 32 5 62 l14 44 -4
-55 c-4 -38 -2 -49 4 -35 5 11 10 50 10 86 1 36 4 88 8 114 12 90 22 14 12
-91z m2504 -189 c94 -198 151 -339 144 -358 -2 -6 -11 12 -22 39 -27 72 -155
353 -214 472 -28 56 -51 105 -51 109 0 22 58 -85 143 -262z m-683 159 c25 -15
25 -15 2 -8 l-24 6 6 -84 5 -83 -13 90 c-7 50 -16 106 -19 125 l-7 35 13 -34
c7 -18 24 -40 37 -47z m1040 -120 c48 -85 133 -277 187 -424 48 -130 54 -231
23 -367 -23 -102 -40 -139 -40 -88 0 42 -31 133 -85 255 -71 157 -75 173 -90
335 -11 116 -22 174 -48 255 -19 58 -37 121 -40 140 l-6 35 27 -32 c16 -18 48
-67 72 -109z m-700 71 c0 -5 -5 -3 -10 5 -5 8 -10 20 -10 25 0 6 5 3 10 -5 5
-8 10 -19 10 -25z m20 -50 c0 -5 -5 -3 -10 5 -5 8 -10 20 -10 25 0 6 5 3 10
-5 5 -8 10 -19 10 -25z m415 5 c9 -16 13 -30 11 -30 -3 0 -12 14 -21 30 -9 17
-13 30 -11 30 3 0 12 -13 21 -30z m-4190 -105 c-21 -167 -21 -609 0 -685 9
-30 24 -95 35 -145 25 -113 133 -366 189 -440 23 -30 45 -63 48 -72 15 -38
-45 23 -90 92 -188 287 -254 624 -213 1080 15 168 34 300 42 292 2 -2 -3 -57
-11 -122z m4279 -38 c67 -107 106 -181 106 -207 0 -8 -21 23 -46 70 -25 47
-60 110 -79 140 -81 137 -69 135 19 -3z m-867 1 c-3 -7 -5 -2 -5 12 0 14 2 19
5 13 2 -7 2 -19 0 -25z m-1933 -115 c4 -7 5 -13 2 -13 -10 0 -86 114 -86 128
0 12 38 -41 84 -115z m2075 68 c72 -37 153 -198 156 -308 0 -33 6 -67 12 -75
19 -24 21 -71 6 -127 -18 -73 -47 -120 -141 -235 -42 -52 -95 -123 -117 -158
-31 -49 -51 -68 -89 -87 -49 -25 -156 -41 -156 -25 0 5 19 48 42 96 30 61 48
88 61 88 30 0 149 70 195 114 49 47 106 130 100 147 -2 7 -27 -19 -55 -57 -77
-103 -129 -145 -212 -169 -23 -7 -23 -6 -17 41 11 84 27 143 42 155 8 6 14 31
15 58 l1 46 14 -60 c7 -34 11 -79 7 -105 l-6 -45 37 45 c21 25 48 57 61 71 16
18 21 30 14 40 -7 11 -10 9 -15 -8 -8 -30 -20 -29 -49 5 -37 42 -59 162 -30
162 8 0 15 5 15 12 0 6 9 3 20 -7 11 -10 20 -13 20 -7 0 6 -4 13 -9 16 -5 3
-11 17 -13 30 -4 21 -1 24 20 23 14 -1 27 4 30 11 3 10 -4 13 -24 11 -58 -4
-64 -1 -63 34 0 17 8 55 17 82 14 42 21 50 45 53 15 2 27 8 27 13 0 17 54 9
76 -12 24 -22 22 -59 -3 -59 -10 0 -14 -7 -10 -20 3 -11 -5 -32 -19 -51 -13
-18 -22 -34 -20 -37 7 -6 126 91 126 103 0 22 -59 94 -89 110 -50 25 -86 20
-115 -18 -15 -19 -26 -39 -26 -45 0 -6 -4 -14 -10 -17 -6 -4 -10 15 -9 52 1
48 3 53 9 28 7 -26 8 -23 9 22 2 82 42 104 120 64z m-1104 -95 c29 -43 -18
-89 -53 -54 -16 16 -15 65 1 71 25 11 37 6 52 -17z m855 -41 c0 -8 -2 -15 -4
-15 -2 0 -6 7 -10 15 -3 8 -1 15 4 15 6 0 10 -7 10 -15z m1387 -107 c-3 -7 -5
-2 -5 12 0 14 2 19 5 13 2 -7 2 -19 0 -25z m-4763 -252 c3 -54 3 -97 1 -94 -3
3 -12 40 -20 82 -16 82 -19 195 -8 236 8 27 15 -34 27 -224z m3409 166 c-3
-28 -10 -49 -15 -46 -8 5 -5 39 9 87 9 33 13 12 6 -41z m977 -114 c6 -28 10
-74 9 -102 -1 -40 -5 -27 -19 64 -10 63 -20 124 -24 135 -3 11 1 5 9 -14 9
-18 20 -56 25 -83z m-977 10 c-6 -7 -13 -20 -16 -28 -3 -9 -6 -3 -6 13 -1 19
4 27 15 27 12 0 14 -4 7 -12z m-2243 -37 c16 -31 12 -61 -8 -61 -24 0 -42 19
-42 45 0 39 32 49 50 16z m-1174 -200 c8 -24 14 -63 14 -85 -1 -42 -33 -213
-43 -222 -3 -3 -13 39 -22 93 -9 54 -20 114 -24 133 -3 19 -5 94 -3 165 l3
130 30 -85 c17 -47 37 -105 45 -129z m3394 169 c0 -5 -4 -10 -9 -10 -5 0 -11
-10 -14 -22 -3 -20 -5 -21 -11 -6 -5 10 -2 23 6 32 15 18 28 20 28 6z m-2734
-238 c-6 -5 -86 189 -86 206 0 9 20 -32 45 -93 24 -60 42 -111 41 -113z m454
134 c0 -8 -4 -17 -9 -21 -12 -7 -24 12 -16 25 9 15 25 12 25 -4z m2957 -18
c-3 -7 -5 -2 -5 12 0 14 2 19 5 13 2 -7 2 -19 0 -25z m-210 -35 c-3 -10 -5 -2
-5 17 0 19 2 27 5 18 2 -10 2 -26 0 -35z m548 -171 c-7 -7 -45 129 -44 157 0
14 11 -14 24 -64 13 -49 22 -91 20 -93z m22 101 c-3 -10 -5 -2 -5 17 0 19 2
27 5 18 2 -10 2 -26 0 -35z m-4348 -108 c12 -49 14 -42 -131 -570 -33 -121
-67 -246 -76 -278 -8 -32 -17 -56 -19 -53 -7 7 42 248 93 456 25 102 51 237
59 300 11 104 37 190 56 190 3 0 12 -20 18 -45z m4338 -107 c-2 -13 -4 -5 -4
17 -1 22 1 32 4 23 2 -10 2 -28 0 -40z m-3828 -35 c12 -24 19 -43 16 -43 -9 0
-45 64 -45 79 0 19 3 14 29 -36z m3281 -56 c-12 -50 -36 -107 -45 -107 -2 0 3
21 11 48 8 26 19 67 26 92 16 61 23 32 8 -33z m74 11 c-61 -121 -148 -219
-233 -263 -42 -21 -132 -31 -157 -17 -17 10 -17 11 7 12 46 0 128 50 169 101
21 27 42 58 45 70 4 11 9 18 12 16 6 -7 -23 -64 -54 -105 -13 -18 -45 -43 -71
-57 -30 -15 -40 -24 -27 -24 27 -1 97 32 142 66 44 33 140 161 167 221 11 23
21 40 23 38 2 -2 -8 -28 -23 -58z m-3805 -77 c1 -35 -6 -136 -15 -225 -16
-155 -16 -260 0 -566 l5 -85 -9 70 c-30 237 -35 826 -7 895 l10 25 7 -25 c5
-14 8 -54 9 -89z m4046 -23 c-18 -182 -63 -313 -130 -378 l-34 -33 56 149 c53
141 83 235 97 297 11 48 17 29 11 -35z m-3489 -3 c17 -27 145 -125 162 -125 6
0 14 -5 17 -11 12 -19 -69 21 -121 61 -53 40 -104 100 -85 100 6 0 18 -11 27
-25z m-627 -292 c0 -299 -1 -302 -45 -133 -28 112 -31 222 -8 301 17 55 41
109 49 109 3 0 5 -125 4 -277z m4176 250 c-10 -43 -67 -175 -72 -169 -5 5 68
196 75 196 2 0 1 -12 -3 -27z m-3615 -61 c-7 -3 -19 3 -28 13 -16 15 -15 16
12 4 15 -7 23 -15 16 -17z m-306 -438 c4 -242 6 -266 31 -364 31 -122 69 -208
149 -338 56 -93 62 -118 8 -39 -52 76 -109 190 -142 282 -57 163 -62 198 -61
460 0 289 0 270 6 263 3 -3 7 -122 9 -264z m3650 51 c-4 -9 -16 -21 -28 -27
-19 -10 -19 -9 3 16 28 30 33 32 25 11z m-3627 -187 c-3 -7 -5 -2 -5 12 0 14
2 19 5 13 2 -7 2 -19 0 -25z m-67 -233 c5 33 8 37 15 20 4 -11 28 -65 53 -120
25 -55 55 -125 68 -155 l24 -55 -44 49 c-25 27 -50 62 -57 77 -6 16 -14 27
-18 25 -11 -7 -111 250 -110 281 0 18 12 -7 32 -67 31 -95 31 -95 37 -55z
m910 80 c0 -17 18 -95 40 -175 22 -80 40 -149 40 -155 -1 -21 -51 83 -75 158
-18 56 -25 100 -25 155 0 53 3 72 10 62 5 -8 10 -29 10 -45z m-172 -203 c17
-40 47 -100 67 -133 20 -34 34 -63 31 -66 -8 -9 -77 61 -103 104 -35 60 -63
171 -69 268 l-4 80 24 -90 c13 -50 37 -123 54 -163z m-881 101 c-2 -16 -4 -3
-4 27 0 30 2 43 4 28 2 -16 2 -40 0 -55z m1963 -161 c0 -5 18 -37 40 -70 41
-64 42 -69 11 -52 -35 18 -86 130 -60 130 5 0 9 -4 9 -8z m-74 -63 c17 -18 22
-28 12 -24 -14 6 -55 55 -45 55 2 0 16 -14 33 -31z m2489 -2193 c-31 -189 -84
-364 -106 -350 -4 2 -11 -1 -15 -7 -4 -8 -3 -9 4 -5 16 10 15 -9 -2 -42 -28
-55 -175 -177 -192 -160 -2 3 32 51 181 255 37 51 50 81 70 160 46 188 65 272
66 290 1 10 4 5 6 -11 3 -16 -3 -75 -12 -130z m-116 -147 c-14 -9 -29 -3 -29
12 0 5 7 9 15 9 8 0 16 8 16 18 1 10 4 7 6 -7 3 -13 -1 -27 -8 -32z m-9 -23
c0 -3 -4 -8 -10 -11 -5 -3 -10 -1 -10 4 0 6 5 11 10 11 6 0 10 -2 10 -4z m0
-50 c0 -3 -4 -8 -10 -11 -5 -3 -10 -1 -10 4 0 6 5 11 10 11 6 0 10 -2 10 -4z
m-67 -136 c-3 -11 -7 -20 -9 -20 -2 0 -4 9 -4 20 0 11 4 20 9 20 5 0 7 -9 4
-20z m-29 -192 c-5 -7 -7 -29 -5 -48 1 -20 -5 -56 -14 -81 -9 -24 -21 -60 -26
-79 -6 -25 -7 -14 -3 40 3 41 11 87 19 102 9 20 10 28 1 31 -7 3 -4 12 8 26
21 23 32 28 20 9z m-44 -328 c0 -11 -4 -20 -10 -20 -5 0 -10 9 -10 20 0 11 5
20 10 20 6 0 10 -9 10 -20z"/>
<path d="M5314 7625 c3 -8 0 -15 -7 -15 -6 0 1 -12 15 -27 15 -15 31 -24 35
-20 3 4 1 13 -5 19 -7 7 -12 22 -12 35 0 14 -6 23 -16 23 -10 0 -14 -6 -10
-15z"/>
<path d="M5305 7570 c10 -11 20 -20 23 -20 3 0 -3 9 -13 20 -10 11 -20 20 -23
20 -3 0 3 -9 13 -20z"/>
<path d="M6905 6880 c-3 -5 -1 -10 4 -10 6 0 11 5 11 10 0 6 -2 10 -4 10 -3 0
-8 -4 -11 -10z"/>
<path d="M3163 7266 c-38 -25 -38 -41 1 -41 34 -1 52 19 40 44 -9 18 -10 18
-41 -3z m28 -19 c-10 -9 -11 -8 -5 6 3 10 9 15 12 12 3 -3 0 -11 -7 -18z"/>
<path d="M4540 6808 c0 -9 7 -22 17 -29 15 -13 15 -12 3 11 -17 34 -20 36 -20
18z"/>
<path d="M4595 6780 c12 -41 27 -60 20 -25 -4 17 -11 35 -17 40 -7 7 -8 2 -3
-15z"/>
<path d="M6090 7110 c0 -5 5 -10 10 -10 6 0 10 5 10 10 0 6 -4 10 -10 10 -5 0
-10 -4 -10 -10z"/>
<path d="M4920 7008 c0 -14 44 -98 52 -98 4 0 5 6 2 14 -7 18 25 29 42 15 8
-6 12 -14 10 -18 -6 -9 51 -77 59 -69 15 15 -69 119 -117 144 -30 16 -37 5
-13 -19 8 -8 11 -18 7 -21 -3 -4 -14 8 -24 26 -9 18 -17 30 -18 26z"/>
<path d="M6610 5410 c0 -5 5 -10 10 -10 6 0 10 5 10 10 0 6 -4 10 -10 10 -5 0
-10 -4 -10 -10z"/>
<path d="M6770 5340 c0 -5 5 -10 11 -10 5 0 7 5 4 10 -3 6 -8 10 -11 10 -2 0
-4 -4 -4 -10z"/>
<path d="M6840 5194 c0 -13 18 -39 24 -34 2 3 -2 14 -10 24 -8 11 -14 16 -14
10z"/>
<path d="M6660 4990 c0 -5 5 -10 11 -10 5 0 7 5 4 10 -3 6 -8 10 -11 10 -2 0
-4 -4 -4 -10z"/>
<path d="M6700 4810 c0 -5 5 -10 11 -10 5 0 7 5 4 10 -3 6 -8 10 -11 10 -2 0
-4 -4 -4 -10z"/>
<path d="M6523 4735 c-9 -25 4 -29 17 -6 7 15 7 21 0 21 -6 0 -13 -7 -17 -15z"/>
<path d="M4521 7164 c-10 -23 -10 -26 4 -20 9 3 19 6 21 6 2 0 4 9 4 20 0 28
-15 25 -29 -6z"/>
<path d="M3445 6829 c-11 -17 1 -21 15 -4 8 9 8 15 2 15 -6 0 -14 -5 -17 -11z"/>
<path d="M3317 6653 c-35 -48 -84 -119 -107 -158 -73 -119 -287 -558 -242
-496 9 13 41 69 69 125 29 55 53 98 53 93 0 -4 -11 -56 -25 -115 -36 -152 -37
-158 -32 -152 3 3 23 59 45 125 42 127 89 229 226 495 47 90 84 166 82 168 -2
1 -33 -37 -69 -85z"/>
<path d="M3470 6659 c0 -5 5 -7 10 -4 6 3 10 8 10 11 0 2 -4 4 -10 4 -5 0 -10
-5 -10 -11z"/>
<path d="M3931 6544 c0 -11 3 -14 6 -6 3 7 2 16 -1 19 -3 4 -6 -2 -5 -13z"/>
<path d="M3911 6474 c0 -11 3 -14 6 -6 3 7 2 16 -1 19 -3 4 -6 -2 -5 -13z"/>
<path d="M3498 6245 c-99 -319 -133 -517 -132 -770 1 -179 2 -197 31 -307 30
-111 75 -231 96 -253 6 -6 8 -1 4 15 -2 14 -16 81 -30 150 -85 412 -70 797 44
1147 17 51 29 103 27 115 -2 14 -18 -26 -40 -97z"/>
<path d="M3395 6280 c-3 -5 -1 -10 4 -10 6 0 11 5 11 10 0 6 -2 10 -4 10 -3 0
-8 -4 -11 -10z"/>
<path d="M3346 6043 c-8 -25 -26 -263 -26 -339 0 -36 4 -64 10 -64 6 0 10 38
10 93 0 50 5 144 10 207 9 110 8 141 -4 103z"/>
<path d="M5281 5725 c-63 -14 -141 -56 -141 -75 0 -13 -6 -15 90 26 47 20 103
42 125 49 56 18 10 18 -74 0z"/>
<path d="M4015 5334 l-40 -14 49 5 c27 3 59 5 72 5 13 0 24 5 24 10 0 14 -58
11 -105 -6z"/>
<path d="M5426 5103 l-29 -15 41 -41 c23 -23 44 -38 48 -34 9 9 -4 70 -19 90
-11 14 -15 14 -41 0z"/>
<path d="M5691 5085 c-19 -17 -51 -29 -87 -35 -59 -10 -84 -23 -84 -46 0 -17
-1 -17 97 -3 81 11 163 40 163 58 0 6 -11 11 -25 11 -27 0 -32 9 -13 28 24 24
-20 13 -51 -13z"/>
<path d="M5440 5010 c0 -5 5 -10 11 -10 5 0 7 5 4 10 -3 6 -8 10 -11 10 -2 0
-4 -4 -4 -10z"/>
<path d="M4580 4631 c0 -20 45 -81 60 -81 5 0 0 23 -12 50 -21 50 -48 67 -48
31z"/>
<path d="M4180 4618 c-21 -9 -22 -12 -7 -15 23 -6 47 3 47 17 0 12 -8 12 -40
-2z"/>
<path d="M4090 4600 c0 -5 10 -10 23 -10 18 0 19 2 7 10 -19 13 -30 13 -30 0z"/>
<path d="M5145 4340 c-130 -11 -224 -33 -299 -71 -179 -91 -207 -146 -135
-260 49 -77 187 -199 225 -199 4 0 -11 17 -34 38 -55 51 -61 80 -28 134 14 24
37 56 51 71 20 23 28 26 45 17 17 -9 19 -8 13 7 -6 15 -4 16 9 5 13 -10 17
-10 22 3 4 11 13 14 26 10 14 -5 20 -2 20 9 0 9 -4 16 -9 16 -5 0 -17 3 -25 6
-12 5 -15 2 -9 -12 5 -14 3 -16 -11 -11 -10 4 -20 7 -22 7 -2 0 -4 4 -4 9 0 5
15 15 33 22 17 7 35 14 40 17 4 2 4 -4 0 -14 -5 -13 -3 -16 9 -11 12 4 14 1
11 -14 -8 -29 4 -23 22 11 14 27 13 34 -7 31 -4 0 -5 6 -2 14 4 8 18 15 31 15
14 0 41 9 60 21 25 16 37 18 47 10 14 -12 46 -5 46 10 0 5 8 1 18 -8 11 -10
17 -22 14 -26 -5 -10 32 -47 47 -47 5 0 9 20 9 45 -1 34 -5 45 -15 41 -7 -3
-13 -1 -13 5 0 6 14 9 31 7 43 -4 65 -42 49 -83 -12 -29 -12 -30 -21 -7 -14
36 -18 26 -12 -28 4 -37 1 -56 -11 -74 -9 -14 -16 -34 -16 -45 0 -24 -16 -36
-24 -19 -3 7 -3 2 0 -11 5 -19 3 -23 -10 -18 -12 5 -16 0 -16 -23 0 -16 -4
-32 -10 -35 -5 -3 -10 -12 -10 -18 1 -24 68 64 102 135 73 148 87 263 37 300
-31 24 -130 30 -274 18z m69 -39 c8 -12 -142 -84 -217 -106 -55 -16 -192 -23
-204 -11 -3 3 1 16 10 30 20 30 94 67 167 82 65 15 236 18 244 5z"/>
<path d="M5143 4182 c-13 -2 -23 -8 -23 -14 0 -6 10 -8 25 -4 19 5 23 3 19 -9
-4 -10 0 -15 10 -15 9 0 16 5 16 11 0 18 -24 34 -47 31z"/>
<path d="M5285 4173 c5 -17 2 -23 -9 -23 -9 0 -16 -4 -16 -10 0 -16 40 -11 47
6 3 9 -2 23 -12 32 -16 16 -17 16 -10 -5z"/>
<path d="M5340 4129 c0 -8 4 -20 9 -27 7 -11 9 -11 14 1 3 9 -1 21 -9 27 -11
10 -14 10 -14 -1z"/>
<path d="M5175 4120 c-3 -5 -1 -10 4 -10 6 0 11 5 11 10 0 6 -2 10 -4 10 -3 0
-8 -4 -11 -10z"/>
<path d="M5105 4090 c3 -5 8 -10 11 -10 2 0 4 5 4 10 0 6 -5 10 -11 10 -5 0
-7 -4 -4 -10z"/>
<path d="M5220 4090 c0 -5 5 -10 10 -10 6 0 10 5 10 10 0 6 -4 10 -10 10 -5 0
-10 -4 -10 -10z"/>
<path d="M5184 4065 c-4 -8 -10 -13 -14 -10 -5 3 -12 0 -16 -6 -5 -8 -3 -9 6
-4 10 6 12 3 8 -13 -9 -34 7 -26 25 13 9 19 12 35 7 35 -6 0 -13 -7 -16 -15z"/>
<path d="M5260 4038 c0 -40 17 -52 18 -13 1 19 -3 35 -8 35 -6 0 -10 -10 -10
-22z"/>
<path d="M6166 4044 c-4 -10 -1 -14 6 -12 15 5 23 28 10 28 -5 0 -13 -7 -16
-16z"/>
<path d="M5211 4024 c0 -11 3 -14 6 -6 3 7 2 16 -1 19 -3 4 -6 -2 -5 -13z"/>
<path d="M5022 4009 c2 -7 10 -15 17 -17 8 -3 12 1 9 9 -2 7 -10 15 -17 17 -8
3 -12 -1 -9 -9z"/>
<path d="M5080 3990 c0 -5 5 -10 11 -10 5 0 7 5 4 10 -3 6 -8 10 -11 10 -2 0
-4 -4 -4 -10z"/>
<path d="M5167 3993 c-4 -3 -7 -13 -7 -22 1 -13 3 -13 11 2 11 19 8 33 -4 20z"/>
<path d="M4893 3958 c1 -21 5 -38 10 -38 10 0 8 42 -3 60 -7 11 -9 5 -7 -22z"/>
<path d="M5110 3973 c0 -15 18 -35 23 -27 3 5 -1 15 -9 22 -8 7 -14 9 -14 5z"/>
<path d="M5220 3960 c0 -5 5 -10 10 -10 6 0 10 5 10 10 0 6 -4 10 -10 10 -5 0
-10 -4 -10 -10z"/>
<path d="M6130 3950 c8 -5 20 -10 25 -10 6 0 3 5 -5 10 -8 5 -19 10 -25 10 -5
0 -3 -5 5 -10z"/>
<path d="M4940 3912 c0 -9 6 -12 16 -8 9 3 20 6 25 6 5 0 9 4 9 10 0 5 -11 9
-25 8 -14 -1 -25 -9 -25 -16z"/>
<path d="M5174 3908 c3 -15 26 -23 26 -8 0 6 -4 9 -9 6 -5 -4 -12 -1 -14 4 -3
6 -4 5 -3 -2z"/>
<path d="M4900 3880 c0 -5 7 -10 15 -10 8 0 15 5 15 10 0 6 -7 10 -15 10 -8 0
-15 -4 -15 -10z"/>
<path d="M5057 3863 c-4 -3 -7 -11 -7 -17 0 -6 5 -5 12 2 6 6 9 14 7 17 -3 3
-9 2 -12 -2z"/>
<path d="M5085 3790 c-3 -5 -1 -10 4 -10 6 0 11 5 11 10 0 6 -2 10 -4 10 -3 0
-8 -4 -11 -10z"/>
<path d="M5915 3760 c-3 -5 -1 -10 4 -10 6 0 11 5 11 10 0 6 -2 10 -4 10 -3 0
-8 -4 -11 -10z"/>
<path d="M6020 3760 c0 -5 5 -10 10 -10 6 0 10 5 10 10 0 6 -4 10 -10 10 -5 0
-10 -4 -10 -10z"/>
<path d="M5945 3660 c3 -5 8 -10 11 -10 2 0 4 5 4 10 0 6 -5 10 -11 10 -5 0
-7 -4 -4 -10z"/>
<path d="M5900 3630 c0 -5 5 -10 10 -10 6 0 10 5 10 10 0 6 -4 10 -10 10 -5 0
-10 -4 -10 -10z"/>
<path d="M6020 3610 c0 -5 5 -10 10 -10 6 0 10 5 10 10 0 6 -4 10 -10 10 -5 0
-10 -4 -10 -10z"/>
<path d="M5900 3589 c0 -5 5 -7 10 -4 6 3 10 8 10 11 0 2 -4 4 -10 4 -5 0 -10
-5 -10 -11z"/>
<path d="M5990 3575 c7 -8 17 -15 22 -15 5 0 3 7 -6 15 -8 8 -18 15 -22 15 -3
0 -1 -7 6 -15z"/>
<path d="M6040 3560 c0 -5 5 -10 11 -10 5 0 7 5 4 10 -3 6 -8 10 -11 10 -2 0
-4 -4 -4 -10z"/>
<path d="M6280 3560 c-9 -6 -10 -10 -3 -10 6 0 15 5 18 10 8 12 4 12 -15 0z"/>
<path d="M5860 3550 c0 -5 5 -10 10 -10 6 0 10 5 10 10 0 6 -4 10 -10 10 -5 0
-10 -4 -10 -10z"/>
<path d="M5900 3550 c0 -5 5 -10 11 -10 5 0 7 5 4 10 -3 6 -8 10 -11 10 -2 0
-4 -4 -4 -10z"/>
<path d="M6080 3550 c0 -5 5 -10 11 -10 5 0 7 5 4 10 -3 6 -8 10 -11 10 -2 0
-4 -4 -4 -10z"/>
<path d="M5800 3510 c0 -5 5 -10 11 -10 5 0 7 5 4 10 -3 6 -8 10 -11 10 -2 0
-4 -4 -4 -10z"/>
<path d="M5935 3510 c-3 -5 -1 -10 4 -10 6 0 11 5 11 10 0 6 -2 10 -4 10 -3 0
-8 -4 -11 -10z"/>
<path d="M5760 3470 c0 -5 5 -10 11 -10 5 0 7 5 4 10 -3 6 -8 10 -11 10 -2 0
-4 -4 -4 -10z"/>
<path d="M5780 3410 c0 -5 5 -10 11 -10 5 0 7 5 4 10 -3 6 -8 10 -11 10 -2 0
-4 -4 -4 -10z"/>
<path d="M5960 3410 c0 -5 5 -10 10 -10 6 0 10 5 10 10 0 6 -4 10 -10 10 -5 0
-10 -4 -10 -10z"/>
<path d="M5880 3380 c0 -5 5 -10 10 -10 6 0 10 5 10 10 0 6 -4 10 -10 10 -5 0
-10 -4 -10 -10z"/>
<path d="M5595 3340 c3 -5 8 -10 11 -10 2 0 4 5 4 10 0 6 -5 10 -11 10 -5 0
-7 -4 -4 -10z"/>
<path d="M5620 3320 c0 -5 -3 -9 -7 -7 -5 1 -9 -1 -10 -5 -4 -10 -1 -11 20 -3
18 8 24 25 7 25 -5 0 -10 -4 -10 -10z"/>
<path d="M6080 3290 c0 -5 5 -10 11 -10 5 0 7 5 4 10 -3 6 -8 10 -11 10 -2 0
-4 -4 -4 -10z"/>
<path d="M5510 3200 c0 -5 5 -10 10 -10 6 0 10 5 10 10 0 6 -4 10 -10 10 -5 0
-10 -4 -10 -10z"/>
<path d="M5855 3180 c4 -6 11 -8 16 -5 14 9 11 15 -7 15 -8 0 -12 -5 -9 -10z"/>
<path d="M6040 3179 c0 -5 5 -7 10 -4 6 3 10 8 10 11 0 2 -4 4 -10 4 -5 0 -10
-5 -10 -11z"/>
<path d="M6310 3140 c0 -5 5 -10 11 -10 5 0 7 5 4 10 -3 6 -8 10 -11 10 -2 0
-4 -4 -4 -10z"/>
<path d="M6358 3133 c6 -2 10 -9 6 -14 -3 -5 -1 -9 5 -9 17 0 21 18 5 24 -9 3
-19 6 -22 5 -4 0 -1 -3 6 -6z"/>
<path d="M5735 3120 c3 -5 8 -10 11 -10 2 0 4 5 4 10 0 6 -5 10 -11 10 -5 0
-7 -4 -4 -10z"/>
<path d="M5535 3100 c3 -5 8 -10 11 -10 2 0 4 5 4 10 0 6 -5 10 -11 10 -5 0
-7 -4 -4 -10z"/>
<path d="M6370 3080 c0 -5 5 -10 11 -10 5 0 7 5 4 10 -3 6 -8 10 -11 10 -2 0
-4 -4 -4 -10z"/>
<path d="M5515 3050 c3 -5 8 -10 11 -10 2 0 4 5 4 10 0 6 -5 10 -11 10 -5 0
-7 -4 -4 -10z"/>
<path d="M5860 2999 c0 -5 5 -7 10 -4 6 3 10 8 10 11 0 2 -4 4 -10 4 -5 0 -10
-5 -10 -11z"/>
<path d="M5575 2990 c3 -5 8 -10 11 -10 2 0 4 5 4 10 0 6 -5 10 -11 10 -5 0
-7 -4 -4 -10z"/>
<path d="M6310 2989 c0 -5 5 -7 10 -4 6 3 10 8 10 11 0 2 -4 4 -10 4 -5 0 -10
-5 -10 -11z"/>
<path d="M5695 2980 c-3 -5 -1 -10 4 -10 6 0 11 5 11 10 0 6 -2 10 -4 10 -3 0
-8 -4 -11 -10z"/>
<path d="M6120 2960 c0 -5 5 -10 11 -10 5 0 7 5 4 10 -3 6 -8 10 -11 10 -2 0
-4 -4 -4 -10z"/>
<path d="M6285 2940 c-3 -5 -1 -10 4 -10 6 0 11 5 11 10 0 6 -2 10 -4 10 -3 0
-8 -4 -11 -10z"/>
<path d="M5760 2920 c0 -5 5 -10 11 -10 5 0 7 5 4 10 -3 6 -8 10 -11 10 -2 0
-4 -4 -4 -10z"/>
<path d="M6085 2920 c3 -5 8 -10 11 -10 2 0 4 5 4 10 0 6 -5 10 -11 10 -5 0
-7 -4 -4 -10z"/>
<path d="M5673 2886 c-9 -11 -8 -18 8 -32 10 -9 19 -12 19 -6 0 6 -6 13 -12
16 -10 5 -10 7 0 12 13 6 17 24 5 24 -5 -1 -13 -7 -20 -14z"/>
<path d="M5730 2890 c0 -5 5 -10 10 -10 6 0 10 5 10 10 0 6 -4 10 -10 10 -5 0
-10 -4 -10 -10z"/>
<path d="M5860 2890 c0 -5 5 -10 10 -10 6 0 10 5 10 10 0 6 -4 10 -10 10 -5 0
-10 -4 -10 -10z"/>
<path d="M6160 2880 c0 -5 5 -10 10 -10 6 0 10 5 10 10 0 6 -4 10 -10 10 -5 0
-10 -4 -10 -10z"/>
<path d="M5427 2873 c-4 -3 -7 -11 -7 -17 0 -6 5 -5 12 2 6 6 9 14 7 17 -3 3
-9 2 -12 -2z"/>
<path d="M5960 2860 c0 -5 5 -10 11 -10 5 0 7 5 4 10 -3 6 -8 10 -11 10 -2 0
-4 -4 -4 -10z"/>
<path d="M5820 2849 c0 -5 5 -7 10 -4 6 3 10 8 10 11 0 2 -4 4 -10 4 -5 0 -10
-5 -10 -11z"/>
<path d="M5740 2830 c0 -5 5 -10 10 -10 6 0 10 5 10 10 0 6 -4 10 -10 10 -5 0
-10 -4 -10 -10z"/>
<path d="M5920 2832 c0 -4 9 -13 20 -20 11 -7 20 -9 20 -4 0 4 -9 13 -20 20
-11 7 -20 9 -20 4z"/>
<path d="M5570 2810 c0 -5 5 -10 10 -10 6 0 10 5 10 10 0 6 -4 10 -10 10 -5 0
-10 -4 -10 -10z"/>
<path d="M6045 2810 c3 -5 8 -10 11 -10 2 0 4 5 4 10 0 6 -5 10 -11 10 -5 0
-7 -4 -4 -10z"/>
<path d="M5696 2801 c-4 -5 -2 -12 3 -15 5 -4 12 -2 15 3 4 5 2 12 -3 15 -5 4
-12 2 -15 -3z"/>
<path d="M5840 2800 c0 -5 5 -10 11 -10 5 0 7 5 4 10 -3 6 -8 10 -11 10 -2 0
-4 -4 -4 -10z"/>
<path d="M5880 2794 c0 -8 5 -12 10 -9 6 4 8 11 5 16 -9 14 -15 11 -15 -7z"/>
<path d="M6020 2800 c0 -5 5 -10 11 -10 5 0 7 5 4 10 -3 6 -8 10 -11 10 -2 0
-4 -4 -4 -10z"/>
<path d="M5567 2766 c-4 -10 -1 -13 9 -9 15 6 19 23 5 23 -5 0 -11 -7 -14 -14z"/>
<path d="M5640 2755 c-7 -8 -9 -15 -6 -15 4 0 14 7 22 15 9 8 11 15 6 15 -5 0
-15 -7 -22 -15z"/>
<path d="M6060 2760 c0 -5 5 -10 10 -10 6 0 10 5 10 10 0 6 -4 10 -10 10 -5 0
-10 -4 -10 -10z"/>
<path d="M5455 2750 c-3 -5 -2 -10 4 -10 5 0 13 5 16 10 3 6 2 10 -4 10 -5 0
-13 -4 -16 -10z"/>
<path d="M5930 2745 c7 -8 17 -15 22 -15 5 0 3 7 -6 15 -8 8 -18 15 -22 15 -3
0 -1 -7 6 -15z"/>
<path d="M6180 2745 c-11 -13 -10 -14 4 -9 9 3 16 10 16 15 0 13 -6 11 -20 -6z"/>
<path d="M5900 2740 c0 -5 5 -10 11 -10 5 0 7 5 4 10 -3 6 -8 10 -11 10 -2 0
-4 -4 -4 -10z"/>
<path d="M5760 2729 c0 -5 5 -7 10 -4 6 3 10 8 10 11 0 2 -4 4 -10 4 -5 0 -10
-5 -10 -11z"/>
<path d="M6063 2724 c-19 -19 -16 -29 4 -13 15 12 16 12 10 -5 -6 -16 -5 -17
8 -6 9 7 12 16 8 19 -4 4 -10 9 -13 13 -3 3 -11 0 -17 -8z"/>
<path d="M5590 2710 c0 -5 5 -10 10 -10 6 0 10 5 10 10 0 6 -4 10 -10 10 -5 0
-10 -4 -10 -10z"/>
<path d="M5640 2716 c0 -11 30 -39 36 -34 2 3 -5 13 -16 23 -11 10 -20 15 -20
11z"/>
<path d="M6005 2710 c3 -5 8 -10 11 -10 2 0 4 5 4 10 0 6 -5 10 -11 10 -5 0
-7 -4 -4 -10z"/>
<path d="M6034 2683 c5 -16 1 -26 -16 -37 -12 -9 -18 -16 -12 -16 6 0 21 9 34
20 21 18 21 20 5 37 -17 16 -17 16 -11 -4z"/>
<path d="M7225 2690 c-3 -5 1 -10 10 -10 9 0 13 5 10 10 -3 6 -8 10 -10 10 -2
0 -7 -4 -10 -10z"/>
<path d="M5550 2680 c0 -5 5 -10 10 -10 6 0 10 5 10 10 0 6 -4 10 -10 10 -5 0
-10 -4 -10 -10z"/>
<path d="M5685 2670 c-4 -6 -14 -9 -22 -5 -13 4 -14 3 -3 -9 11 -14 14 -14 27
0 9 8 13 17 10 20 -3 3 -8 0 -12 -6z"/>
<path d="M6005 2670 c3 -5 8 -10 11 -10 2 0 4 5 4 10 0 6 -5 10 -11 10 -5 0
-7 -4 -4 -10z"/>
<path d="M5507 2646 c-4 -10 -1 -13 9 -9 15 6 19 23 5 23 -5 0 -11 -7 -14 -14z"/>
<path d="M5630 2653 c0 -15 19 -37 26 -31 3 4 -1 14 -10 23 -9 9 -16 13 -16 8z"/>
<path d="M4960 2640 c-25 -5 -63 -13 -85 -19 -36 -9 -33 -10 25 -4 81 7 145 7
190 -1 34 -7 34 -7 10 7 -35 20 -87 26 -140 17z"/>
<path d="M5720 2630 c0 -5 5 -10 11 -10 5 0 7 5 4 10 -3 6 -8 10 -11 10 -2 0
-4 -4 -4 -10z"/>
<path d="M214 2587 c-2 -7 -3 -548 -2 -1201 3 -1042 5 -1188 18 -1196 9 -6
530 -10 1355 -11 737 -1 1333 -3 1324 -6 -12 -3 -18 -21 -23 -65 -11 -104 -10
-108 23 -108 29 0 29 0 33 68 2 37 8 75 12 85 6 13 4 17 -10 17 -9 0 -15 3
-12 6 4 3 844 5 1867 5 l1861 0 -2 1207 -3 1207 -3218 3 c-2660 2 -3218 0
-3223 -11z m6418 -54 c0 -24 -1 -63 -1 -88 l-1 -45 -3198 3 -3197 2 -3 88 -3
87 3202 -2 3202 -3 -1 -42z m-6102 -208 l0 -66 -147 3 -148 3 -3 63 -3 62 151
0 150 0 0 -65z m715 0 l0 -60 -352 -3 -353 -2 0 65 0 65 353 -2 352 -3 0 -60z
m803 3 l-3 -63 -392 -3 -393 -2 0 65 0 65 395 0 396 0 -3 -62z m802 -3 l0 -65
-392 2 -393 3 -3 63 -3 62 396 0 395 0 0 -65z m800 0 l0 -65 -392 2 -393 3 -3
63 -3 62 396 0 395 0 0 -65z m728 3 l-3 -63 -355 0 -355 0 -3 49 c-2 27 -1 55
2 62 4 12 68 14 361 14 l356 0 -3 -62z m1007 -3 l0 -60 -495 0 -495 0 -3 63
-3 62 498 -2 498 -3 0 -60z m800 0 l0 -60 -392 -3 -393 -2 0 65 0 65 393 -2
392 -3 0 -60z m290 0 l0 -60 -137 -3 -138 -3 0 66 0 66 138 -3 137 -3 0 -60z
m155 -60 l0 -75 -70 0 -70 0 0 75 0 75 70 0 70 0 0 -75z m-6102 -77 l-3 -63
-145 0 -145 0 -3 63 -3 62 151 0 151 0 -3 -62z m5950 -848 c1 -498 0 -920 -3
-938 l-6 -32 -534 0 c-417 0 -535 3 -539 13 -5 10 -7 10 -12 0 -4 -10 -114
-13 -500 -13 -388 0 -494 3 -495 13 0 9 -2 9 -6 -1 -4 -9 -85 -12 -358 -12
-327 0 -355 1 -364 18 -10 16 -10 16 -11 0 0 -17 -45 -18 -795 -18 -750 0
-795 1 -796 18 -1 16 -2 16 -6 -1 -4 -16 -49 -17 -758 -17 l-754 0 0 940 0
940 2967 -2 2967 -3 3 -905z m152 755 l0 -75 -62 -2 -63 -2 63 -3 62 -4 0
-729 c0 -402 1 -733 3 -737 1 -5 -31 -9 -70 -11 l-73 -3 0 821 0 820 70 0 70
0 0 -75z m-6100 -45 l0 -60 -150 0 -150 0 0 60 0 60 150 0 150 0 0 -60z m0
-175 l0 -95 -150 0 -150 0 0 95 0 95 150 0 150 0 0 -95z m-2 -167 l-3 -63
-147 -3 -148 -3 0 66 0 65 150 0 151 0 -3 -62z m0 -140 l-3 -63 -145 0 -145 0
-3 63 -3 62 151 0 151 0 -3 -62z m0 -140 l-3 -63 -145 0 -145 0 -3 63 -3 62
151 0 151 0 -3 -62z m2 -138 l0 -60 -150 0 -150 0 0 60 0 60 150 0 150 0 0
-60z m0 -140 l0 -60 -150 0 -150 0 0 60 0 60 150 0 150 0 0 -60z m0 -140 l0
-60 -150 0 -150 0 0 60 0 60 150 0 150 0 0 -60z m-2 -137 l3 -63 -151 0 -150
0 0 58 c0 32 3 62 7 66 4 3 70 5 147 4 l141 -3 3 -62z m0 -140 l3 -63 -151 0
-150 0 0 58 c0 32 3 62 7 66 4 3 70 5 147 4 l141 -3 3 -62z m2 -138 l0 -65
-150 0 -150 0 0 65 0 65 150 0 150 0 0 -65z m0 -140 l0 -65 -150 0 -150 0 0
65 0 65 150 0 150 0 0 -65z m6100 -8 l0 -73 -67 2 -68 1 -3 72 -3 71 71 0 70
0 0 -73z m-6177 -74 c-40 -2 -106 -2 -145 0 -40 1 -8 3 72 3 80 0 112 -2 73
-3z m-25 -85 l-3 -73 -70 0 -70 0 -3 59 c-4 85 -4 86 78 86 l71 0 -3 -72z
m5882 -3 l0 -75 -2808 0 c-1545 0 -2864 3 -2930 7 l-122 6 0 62 c0 34 3 65 7
68 3 4 1322 7 2930 7 l2923 0 0 -75z m160 0 l0 -76 -67 3 -68 3 -3 73 -3 72
71 0 70 0 0 -75z m170 0 l0 -75 -75 0 -75 0 0 75 0 75 75 0 75 0 0 -75z"/>
<path d="M3022 2493 c3 -46 4 -48 36 -51 44 -4 72 21 72 65 0 18 -4 33 -10 33
-5 0 -10 -18 -10 -40 0 -22 -4 -40 -10 -40 -5 0 -10 18 -10 40 0 29 -4 40 -15
40 -11 0 -15 -11 -15 -40 0 -22 -4 -40 -10 -40 -5 0 -10 18 -10 40 0 22 -5 40
-11 40 -6 0 -9 -19 -7 -47z"/>
<path d="M3300 2496 c0 -43 14 -70 23 -44 3 10 7 10 20 -1 19 -15 23 -1 5 17
-8 8 -8 15 2 27 17 20 5 32 -15 15 -13 -10 -15 -9 -15 9 0 11 -4 21 -10 21 -5
0 -10 -20 -10 -44z"/>
<path d="M3460 2496 c0 -25 5 -48 10 -51 6 -4 10 6 10 24 0 41 18 49 22 9 4
-40 23 -40 23 0 0 18 -7 30 -22 37 -13 5 -23 13 -23 17 0 5 -4 8 -10 8 -5 0
-10 -20 -10 -44z"/>
<path d="M3727 2527 c-7 -19 6 -78 17 -77 8 0 11 34 7 80 -1 15 -18 12 -24 -3z"/>
<path d="M3802 2493 c2 -27 7 -47 13 -45 8 2 9 11 6 72 -1 11 -6 20 -12 20 -6
0 -9 -19 -7 -47z"/>
<path d="M3157 2514 c-4 -4 -7 -20 -7 -35 0 -19 6 -30 21 -34 28 -9 41 6 37
41 -3 28 -34 45 -51 28z m33 -29 c0 -14 -4 -25 -10 -25 -11 0 -14 33 -3 43 11
11 13 8 13 -18z"/>
<path d="M3240 2489 c0 -16 0 -31 0 -34 0 -3 3 -6 8 -7 4 -2 9 8 10 22 2 14 8
30 12 35 6 7 2 11 -11 12 -15 1 -19 -5 -19 -28z"/>
<path d="M3394 2505 c-4 -8 -1 -22 6 -30 10 -12 10 -15 -1 -15 -9 0 -10 -3 -3
-10 14 -14 44 -2 44 16 0 8 -7 17 -16 21 -8 3 -13 12 -10 19 3 8 1 14 -5 14
-5 0 -12 -7 -15 -15z"/>
<path d="M3557 2514 c-11 -11 -8 -62 3 -69 6 -4 19 -4 28 0 15 6 15 8 -3 15
-19 9 -19 9 3 16 14 4 22 13 20 23 -3 17 -39 27 -51 15z m33 -14 c0 -5 -4 -10
-10 -10 -5 0 -10 5 -10 10 0 6 5 10 10 10 6 0 10 -4 10 -10z"/>
<path d="M3637 2513 c-12 -12 -7 -50 8 -63 9 -7 22 -9 32 -4 16 7 15 8 -5 11
-26 5 -20 23 9 23 22 0 24 11 7 28 -13 13 -41 16 -51 5z m33 -13 c0 -5 -5 -10
-11 -10 -5 0 -7 5 -4 10 3 6 8 10 11 10 2 0 4 -4 4 -10z"/>
<path d="M6500 2506 c0 -8 -10 -17 -22 -19 -20 -4 -19 -4 5 -6 21 -1 27 4 27
19 0 11 -2 20 -5 20 -3 0 -5 -6 -5 -14z"/>
<path d="M6528 2485 c-2 -19 0 -35 4 -35 4 0 8 16 8 35 0 19 -2 35 -4 35 -2 0
-6 -16 -8 -35z"/>
<path d="M405 2460 c-3 -5 -1 -10 4 -10 6 0 11 5 11 10 0 6 -2 10 -4 10 -3 0
-8 -4 -11 -10z"/>
<path d="M871 2335 c-16 -45 -2 -71 15 -30 11 26 13 27 14 8 0 -27 18 -40 26
-20 6 16 -21 77 -34 77 -5 0 -14 -16 -21 -35z"/>
<path d="M1622 2328 c2 -35 7 -44 24 -46 30 -4 45 18 35 54 -5 22 -14 30 -35
32 -26 3 -27 2 -24 -40z m38 22 c0 -5 -4 -10 -10 -10 -5 0 -10 5 -10 10 0 6 5
10 10 10 6 0 10 -4 10 -10z m0 -42 c0 -16 -3 -19 -11 -11 -6 6 -8 16 -5 22 11
17 16 13 16 -11z"/>
<path d="M2424 2343 c-4 -14 -2 -33 3 -42 13 -20 45 -21 51 -1 5 13 3 13 -11
1 -14 -11 -18 -11 -23 2 -10 26 0 52 19 49 9 -2 17 2 17 8 0 5 -11 10 -25 10
-18 0 -26 -7 -31 -27z"/>
<path d="M3229 2368 c-10 -35 -7 -79 5 -84 39 -15 74 44 44 74 -10 10 -47 17
-49 10z m41 -43 c0 -8 -4 -17 -10 -20 -6 -4 -10 5 -10 20 0 15 4 24 10 20 6
-3 10 -12 10 -20z"/>
<path d="M3994 2346 c-9 -38 -1 -61 24 -64 12 -2 22 1 22 7 0 6 -4 11 -10 11
-13 0 -9 53 5 62 5 4 0 8 -12 8 -16 0 -25 -8 -29 -24z"/>
<path d="M4860 2325 c0 -25 5 -45 10 -45 6 0 10 8 10 18 0 10 5 23 12 30 9 9
9 12 -2 12 -11 1 -10 5 4 15 19 14 19 15 -7 15 -25 0 -27 -3 -27 -45z"/>
<path d="M5767 2363 c-4 -3 -7 -21 -7 -39 0 -24 5 -34 20 -39 11 -3 24 -3 30
0 13 8 13 45 0 45 -5 0 -10 -9 -10 -21 0 -11 -4 -17 -10 -14 -5 3 -10 20 -10
36 0 26 3 29 21 24 15 -5 19 -4 15 4 -8 12 -39 15 -49 4z"/>
<path d="M6510 2260 c0 -6 4 -9 9 -5 5 3 11 -5 13 -17 2 -15 11 -24 26 -26 12
-2 22 1 22 6 0 6 -9 8 -19 5 -14 -4 -20 1 -23 18 -3 23 -28 40 -28 19z"/>
<path d="M369 2226 c-8 -9 3 -86 12 -86 5 0 9 20 9 45 0 40 -7 54 -21 41z"/>
<path d="M2045 2120 c-3 -5 -1 -10 4 -10 6 0 11 5 11 10 0 6 -2 10 -4 10 -3 0
-8 -4 -11 -10z"/>
<path d="M5385 2120 c-3 -5 -1 -10 4 -10 6 0 11 5 11 10 0 6 -2 10 -4 10 -3 0
-8 -4 -11 -10z"/>
<path d="M5376 1993 c-10 -10 -7 -197 4 -213 5 -8 10 -10 10 -5 0 6 4 4 8 -2
6 -10 103 -13 406 -13 219 -1 401 1 404 4 2 3 4 49 3 103 -2 145 36 133 -436
133 -216 -1 -395 -4 -399 -7z m799 -118 l0 -80 -382 -3 -383 -2 0 85 0 85 383
-2 382 -3 0 -80z"/>
<path d="M5568 1933 c6 -2 18 -2 25 0 6 3 1 5 -13 5 -14 0 -19 -2 -12 -5z"/>
<path d="M5642 1883 c1 -50 2 -52 5 -15 4 45 17 55 28 22 3 -11 11 -20 16 -20
5 0 -1 16 -13 35 -13 19 -26 35 -30 35 -5 0 -7 -26 -6 -57z"/>
<path d="M5718 1891 c-7 -52 -5 -71 8 -59 3 3 4 30 2 59 l-3 54 -7 -54z"/>
<path d="M5752 1883 c-2 -61 -1 -63 23 -63 14 0 25 4 25 9 0 5 -8 8 -17 7 -15
-1 -19 10 -24 54 l-6 55 -1 -62z"/>
<path d="M5840 1885 c0 -30 5 -55 10 -55 6 0 10 25 10 55 0 30 -4 55 -10 55
-5 0 -10 -25 -10 -55z"/>
<path d="M5892 1883 c1 -51 2 -53 5 -15 2 23 8 40 14 37 11 -7 11 -3 3 19 -13
34 -24 13 -22 -41z"/>
<path d="M5958 1893 c-3 -27 -1 -52 4 -57 4 -6 8 16 8 47 0 69 -6 74 -12 10z"/>
<path d="M5998 1913 c-2 -16 -1 -43 1 -60 3 -27 8 -33 27 -33 13 0 24 5 24 10
0 6 -9 10 -20 10 -25 0 -27 37 -2 43 16 4 16 5 0 6 -30 2 -22 39 10 44 26 4
25 4 -5 6 -28 1 -32 -3 -35 -26z"/>
<path d="M5536 1907 c-5 -9 -5 -29 0 -45 7 -25 8 -26 11 -4 3 12 3 32 0 45 -3
19 -4 20 -11 4z"/>
<path d="M5613 1885 c0 -22 2 -30 4 -17 2 12 2 30 0 40 -3 9 -5 -1 -4 -23z"/>
<path d="M5568 1828 c9 -9 15 -9 24 0 9 9 7 12 -12 12 -19 0 -21 -3 -12 -12z"/>
<path d="M1240 1980 c0 -5 5 -10 10 -10 6 0 10 5 10 10 0 6 -4 10 -10 10 -5 0
-10 -4 -10 -10z"/>
<path d="M888 1915 c-3 -13 -1 -23 5 -22 5 1 12 -4 14 -11 4 -9 -2 -13 -17
-10 -16 2 -25 -4 -32 -21 -8 -24 -8 -24 10 -8 23 21 51 22 58 2 4 -8 10 -15
16 -15 9 0 -20 60 -36 71 -5 4 -6 11 -2 17 3 6 2 13 -3 16 -5 3 -11 -5 -13
-19z"/>
<path d="M1474 1885 c1 -58 2 -60 29 -63 15 -2 27 2 27 8 0 6 -10 10 -22 8
-21 -3 -24 2 -29 52 l-6 55 1 -60z"/>
<path d="M1600 1931 c20 -5 26 -15 31 -46 l6 -40 2 36 c1 40 -13 59 -43 58
-18 -1 -17 -2 4 -8z"/>
<path d="M1660 1932 c0 -4 11 -24 25 -44 14 -20 25 -43 25 -50 0 -7 11 11 25
40 31 68 32 82 1 22 l-23 -44 -22 42 c-20 40 -31 52 -31 34z"/>
<path d="M1782 1883 c3 -53 5 -57 31 -60 15 -2 27 1 27 7 0 5 -11 10 -25 10
-32 0 -33 27 -2 40 l22 9 -23 0 c-32 1 -25 33 8 42 23 6 22 7 -8 8 l-33 1 3
-57z"/>
<path d="M2191 1883 c-1 -35 3 -63 8 -63 4 0 6 24 4 53 -7 77 -11 81 -12 10z"/>
<path d="M2272 1883 c3 -55 4 -58 31 -60 15 -1 27 2 27 8 0 5 -11 9 -25 9 -32
0 -33 27 -2 40 l22 9 -23 0 c-32 1 -25 33 8 42 23 6 22 7 -8 8 l-33 1 3 -57z"/>
<path d="M2372 1933 c13 -3 18 -18 21 -56 l3 -52 2 52 c2 40 6 53 20 56 9 3
-1 5 -23 5 -22 0 -32 -2 -23 -5z"/>
<path d="M2472 1933 c13 -3 18 -18 21 -56 l3 -52 2 52 c2 40 6 53 20 56 9 3
-1 5 -23 5 -22 0 -32 -2 -23 -5z"/>
<path d="M2550 1886 c0 -30 5 -58 10 -61 7 -4 9 2 4 19 -5 21 -2 28 17 35 l24
10 -23 0 c-32 1 -25 33 8 42 23 6 22 7 -7 8 l-33 1 0 -54z"/>
<path d="M2641 1883 c1 -32 4 -48 6 -35 5 25 7 26 33 12 16 -8 18 -8 14 5 -4
8 -15 15 -25 15 -29 0 -26 47 4 53 19 4 18 4 -5 6 -28 1 -28 0 -27 -56z"/>
<path d="M3183 1933 c13 -3 17 -15 17 -55 0 -61 8 -60 14 1 2 24 10 47 17 52
9 6 0 8 -26 8 -22 -1 -32 -3 -22 -6z"/>
<path d="M3298 1933 c6 -2 18 -2 25 0 6 3 1 5 -13 5 -14 0 -19 -2 -12 -5z"/>
<path d="M3912 1933 c13 -3 18 -18 21 -56 l3 -52 2 52 c2 40 6 53 20 56 9 3
-1 5 -23 5 -22 0 -32 -2 -23 -5z"/>
<path d="M4060 1914 c0 -23 -3 -26 -30 -22 -18 3 -30 0 -30 -7 0 -6 12 -11 27
-10 20 0 29 -6 34 -25 5 -18 7 -8 8 33 1 31 -1 57 -4 57 -3 0 -5 -12 -5 -26z"/>
<path d="M4092 1883 c3 -55 4 -58 32 -61 18 -2 26 0 21 7 -3 7 -14 10 -23 9
-26 -5 -27 31 0 41 l23 10 -23 0 c-32 1 -25 33 8 42 23 6 22 7 -8 8 l-33 1 3
-57z"/>
<path d="M4479 1936 c-2 -2 -2 -29 -1 -59 3 -50 6 -54 28 -54 13 0 24 3 24 8
0 5 -9 9 -20 9 -29 0 -27 37 3 43 l22 4 -22 2 c-35 2 -31 39 5 44 26 4 26 4
-4 6 -17 0 -33 -1 -35 -3z"/>
<path d="M4560 1934 c0 -13 18 -39 24 -34 2 3 -2 14 -10 24 -8 11 -14 16 -14
10z"/>
<path d="M4622 1920 c-7 -11 -8 -20 -3 -20 9 0 24 30 18 36 -1 2 -8 -6 -15
-16z"/>
<path d="M4672 1933 c13 -3 18 -18 21 -56 l3 -52 2 52 c2 40 6 53 20 56 9 3
-1 5 -23 5 -22 0 -32 -2 -23 -5z"/>
<path d="M4759 1928 c-6 -57 -4 -98 3 -98 4 0 8 9 8 20 0 23 10 26 28 8 9 -9
12 -8 12 5 0 10 -8 17 -20 17 -30 0 -28 47 3 53 19 4 18 4 -5 6 -16 0 -29 -4
-29 -11z"/>
<path d="M4862 1883 c3 -55 4 -58 31 -61 15 -2 27 1 27 7 0 6 -11 11 -25 11
-32 0 -33 27 -2 40 l22 9 -23 0 c-32 1 -25 33 8 42 23 6 22 7 -8 8 l-33 1 3
-57z"/>
<path d="M4950 1885 c0 -32 2 -56 4 -54 8 7 10 98 3 105 -4 4 -7 -19 -7 -51z"/>
<path d="M5028 1933 c-2 -5 -1 -30 3 -58 l6 -50 1 58 c2 52 -2 69 -10 50z"/>
<path d="M5062 1883 c3 -55 4 -58 31 -61 15 -2 27 1 27 7 0 6 -11 11 -25 11
-32 0 -33 27 -2 40 17 7 18 9 5 9 -27 1 -23 39 5 44 16 3 12 5 -11 6 l-33 1 3
-57z"/>
<path d="M5154 1886 c1 -57 2 -60 29 -63 18 -3 26 0 22 7 -3 5 -15 10 -25 10
-16 0 -20 9 -23 53 -4 51 -4 51 -3 -7z"/>
<path d="M5241 1935 c0 -5 6 -21 14 -35 8 -14 15 -36 16 -50 1 -23 2 -23 8 5
4 17 13 41 20 53 7 13 10 26 7 30 -3 3 -6 1 -6 -4 0 -6 -6 -19 -14 -29 -13
-18 -14 -17 -29 11 -9 16 -16 25 -16 19z"/>
<path d="M3995 1920 c3 -5 8 -10 11 -10 2 0 4 5 4 10 0 6 -5 10 -11 10 -5 0
-7 -4 -4 -10z"/>
<path d="M1563 1880 c0 -25 2 -35 4 -22 2 12 2 32 0 45 -2 12 -4 2 -4 -23z"/>
<path d="M2701 1904 c0 -11 3 -14 6 -6 3 7 2 16 -1 19 -3 4 -6 -2 -5 -13z"/>
<path d="M3273 1885 c0 -22 2 -30 4 -17 2 12 2 30 0 40 -3 9 -5 -1 -4 -23z"/>
<path d="M3343 1885 c0 -22 2 -30 4 -17 2 12 2 30 0 40 -3 9 -5 -1 -4 -23z"/>
<path d="M4821 1904 c0 -11 3 -14 6 -6 3 7 2 16 -1 19 -3 4 -6 -2 -5 -13z"/>
<path d="M4610 1860 c12 -16 24 -30 26 -30 3 0 -3 14 -13 30 -9 17 -21 30 -26
30 -5 0 1 -13 13 -30z"/>
<path d="M4570 1850 c-6 -11 -8 -20 -6 -20 3 0 10 9 16 20 6 11 8 20 6 20 -3
0 -10 -9 -16 -20z"/>
<path d="M1585 1830 c-3 -5 1 -10 9 -10 8 0 18 5 21 10 3 6 -1 10 -9 10 -8 0
-18 -4 -21 -10z"/>
<path d="M2220 1830 c0 -5 5 -10 10 -10 6 0 10 5 10 10 0 6 -4 10 -10 10 -5 0
-10 -4 -10 -10z"/>
<path d="M2585 1830 c-3 -5 1 -10 9 -10 9 0 16 5 16 10 0 6 -4 10 -9 10 -6 0
-13 -4 -16 -10z"/>
<path d="M3294 1828 c10 -5 23 -5 34 1 14 8 10 10 -16 9 -26 -1 -30 -3 -18
-10z"/>
<path d="M2045 1780 c-3 -5 -1 -10 4 -10 6 0 11 5 11 10 0 6 -2 10 -4 10 -3 0
-8 -4 -11 -10z"/>
<path d="M3650 1780 c0 -5 5 -10 11 -10 5 0 7 5 4 10 -3 6 -8 10 -11 10 -2 0
-4 -4 -4 -10z"/>
<path d="M6185 1640 c-3 -5 -1 -10 4 -10 6 0 11 5 11 10 0 6 -2 10 -4 10 -3 0
-8 -4 -11 -10z"/>
<path d="M2045 1500 c-3 -5 -1 -10 4 -10 6 0 11 5 11 10 0 6 -2 10 -4 10 -3 0
-8 -4 -11 -10z"/>
<path d="M3650 1500 c0 -5 5 -10 10 -10 6 0 10 5 10 10 0 6 -4 10 -10 10 -5 0
-10 -4 -10 -10z"/>
<path d="M5385 1500 c-3 -5 -1 -10 4 -10 6 0 11 5 11 10 0 6 -2 10 -4 10 -3 0
-8 -4 -11 -10z"/>
<path d="M1245 1360 c-3 -5 -1 -10 4 -10 6 0 11 5 11 10 0 6 -2 10 -4 10 -3 0
-8 -4 -11 -10z"/>
<path d="M3650 1219 c0 -5 5 -7 10 -4 6 3 10 8 10 11 0 2 -4 4 -10 4 -5 0 -10
-5 -10 -11z"/>
<path d="M5385 1220 c-3 -5 -1 -10 4 -10 6 0 11 5 11 10 0 6 -2 10 -4 10 -3 0
-8 -4 -11 -10z"/>
<path d="M1245 1080 c3 -5 8 -10 11 -10 2 0 4 5 4 10 0 6 -5 10 -11 10 -5 0
-7 -4 -4 -10z"/>
<path d="M3650 939 c0 -5 5 -7 10 -4 6 3 10 8 10 11 0 2 -4 4 -10 4 -5 0 -10
-5 -10 -11z"/>
<path d="M5385 940 c3 -5 8 -10 11 -10 2 0 4 5 4 10 0 6 -5 10 -11 10 -5 0 -7
-4 -4 -10z"/>
<path d="M1245 800 c3 -5 8 -10 11 -10 2 0 4 5 4 10 0 6 -5 10 -11 10 -5 0 -7
-4 -4 -10z"/>
<path d="M5385 660 c3 -5 8 -10 11 -10 2 0 4 5 4 10 0 6 -5 10 -11 10 -5 0 -7
-4 -4 -10z"/>
<path d="M354 2079 c-4 -8 0 -9 15 -4 27 8 27 -6 1 -30 -11 -10 -19 -23 -17
-28 4 -14 45 -19 52 -7 3 6 -4 10 -16 10 l-22 0 22 24 c13 14 20 29 16 35 -8
14 -42 14 -51 0z"/>
<path d="M363 1903 c14 -4 15 -8 7 -18 -8 -9 -7 -14 5 -19 23 -8 18 -29 -6
-23 -13 3 -19 1 -16 -6 2 -7 15 -12 28 -12 22 0 24 4 24 42 0 41 -1 43 -30 42
-18 -1 -23 -3 -12 -6z"/>
<path d="M370 1725 c-18 -20 -21 -28 -12 -37 7 -7 12 -8 12 -3 0 4 8 0 19 -9
23 -21 31 -7 24 42 -6 39 -12 40 -43 7z"/>
<path d="M350 1591 c0 -10 9 -21 20 -24 11 -3 20 -11 20 -17 0 -7 -7 -10 -15
-7 -8 4 -17 2 -20 -2 -7 -12 21 -22 40 -15 22 9 19 45 -5 51 -27 7 -25 21 3
26 16 3 13 5 -10 6 -26 1 -33 -3 -33 -18z"/>
<path d="M362 1458 c-19 -19 -15 -65 6 -70 26 -7 42 2 42 24 0 12 -8 22 -21
25 -21 6 -21 7 -4 20 15 10 15 13 4 13 -8 0 -20 -5 -27 -12z m28 -43 c0 -8 -4
-15 -10 -15 -5 0 -10 7 -10 15 0 8 5 15 10 15 6 0 10 -7 10 -15z"/>
<path d="M368 1323 c17 -3 22 -9 17 -21 -14 -34 -17 -52 -8 -52 8 0 33 55 33
73 0 4 -15 6 -32 6 -25 -1 -27 -3 -10 -6z"/>
<path d="M352 1153 c3 -33 7 -38 31 -41 26 -3 27 -1 27 37 0 39 -1 41 -31 41
-29 0 -30 -2 -27 -37z m38 17 c0 -5 -4 -10 -10 -10 -5 0 -10 5 -10 10 0 6 5
10 10 10 6 0 10 -4 10 -10z m0 -35 c0 -8 -4 -15 -10 -15 -5 0 -10 7 -10 15 0
8 5 15 10 15 6 0 10 -7 10 -15z"/>
<path d="M363 1053 c-22 -8 -15 -44 8 -50 21 -6 21 -7 4 -20 -15 -10 -15 -13
-4 -13 23 0 39 21 39 51 0 27 -21 41 -47 32z m27 -28 c0 -8 -4 -15 -10 -15 -5
0 -10 7 -10 15 0 8 5 15 10 15 6 0 10 -7 10 -15z"/>
<path d="M327 913 c-7 -13 5 -83 14 -83 12 0 12 77 0 85 -5 3 -12 2 -14 -2z"/>
<path d="M401 906 c-7 -8 -11 -27 -9 -43 2 -22 9 -29 30 -31 23 -3 29 2 34 24
12 46 -28 82 -55 50z m29 -36 c0 -16 -4 -30 -10 -30 -5 0 -10 14 -10 30 0 17
5 30 10 30 6 0 10 -13 10 -30z"/>
<path d="M327 773 c-7 -13 5 -83 14 -83 12 0 12 77 0 85 -5 3 -12 2 -14 -2z"/>
<path d="M416 773 c-9 -10 -7 -83 3 -83 5 0 11 18 13 41 4 39 -2 55 -16 42z"/>
<path d="M327 633 c-7 -13 5 -83 14 -83 5 0 9 20 9 45 0 40 -11 58 -23 38z"/>
<path d="M394 628 c-5 -8 0 -9 14 -6 28 8 29 -13 2 -37 -28 -26 -25 -35 13
-34 17 1 24 3 15 6 -23 6 -23 16 2 38 15 14 17 21 9 32 -14 16 -45 17 -55 1z"/>
<path d="M327 493 c-7 -13 5 -83 14 -83 5 0 9 20 9 45 0 40 -11 58 -23 38z"/>
<path d="M403 493 c12 -3 16 -10 12 -24 -4 -11 -2 -19 4 -19 6 0 11 -7 11 -15
0 -9 -6 -12 -15 -9 -8 4 -15 1 -15 -5 0 -16 36 -13 50 4 9 11 10 18 1 29 -6 7
-9 21 -5 30 5 13 0 16 -27 15 -19 -1 -26 -3 -16 -6z"/>
<path d="M6550 496 c0 -2 7 -6 15 -10 8 -3 15 -1 15 4 0 6 -7 10 -15 10 -8 0
-15 -2 -15 -4z"/>
<path d="M6531 473 c-1 -12 -7 -24 -13 -26 -10 -4 -10 -6 0 -6 15 -1 26 23 19
41 -3 7 -6 3 -6 -9z"/>
<path d="M6570 456 c0 -2 7 -7 16 -10 8 -3 12 -2 9 4 -6 10 -25 14 -25 6z"/>
<path d="M355 331 c-6 -11 13 -26 22 -17 4 3 1 6 -6 6 -7 0 -9 5 -6 10 3 6 4
10 1 10 -3 0 -7 -4 -11 -9z"/>
<path d="M390 310 c0 -5 5 -10 11 -10 5 0 7 5 4 10 -3 6 -8 10 -11 10 -2 0 -4
-4 -4 -10z"/>
<path d="M355 261 c-3 -5 -1 -12 5 -16 5 -3 10 1 10 9 0 18 -6 21 -15 7z"/>
<path d="M6387 325 c-4 -8 -2 -17 3 -20 6 -4 10 -4 10 -1 0 2 3 11 6 20 3 9 2
16 -4 16 -5 0 -12 -7 -15 -15z"/>
<path d="M6350 299 c0 -5 5 -7 10 -4 6 3 10 8 10 11 0 2 -4 4 -10 4 -5 0 -10
-5 -10 -11z"/>
<path d="M6350 269 c0 -5 5 -7 10 -4 6 3 10 8 10 11 0 2 -4 4 -10 4 -5 0 -10
-5 -10 -11z"/>
<path d="M6390 259 c0 -11 4 -18 10 -14 5 3 7 12 3 20 -7 21 -13 19 -13 -6z"/>
<path d="M6510 300 c0 -22 5 -40 10 -40 6 0 10 -9 10 -21 0 -18 5 -20 48 -17
l47 3 0 45 c0 39 -3 45 -22 48 -13 2 -23 8 -23 13 0 5 -16 9 -35 9 -34 0 -35
-1 -35 -40z m58 3 c-2 -20 -9 -28 -23 -28 -14 0 -21 8 -23 28 -3 23 0 27 23
27 23 0 26 -4 23 -27z m44 -38 c3 -28 1 -30 -31 -30 -19 0 -36 6 -38 13 -3 7
4 12 16 12 14 0 21 6 21 18 0 46 26 35 32 -13z"/>
<path d="M7350 2490 c0 -5 5 -10 10 -10 6 0 10 5 10 10 0 6 -4 10 -10 10 -5 0
-10 -4 -10 -10z"/>
<path d="M7415 2390 c3 -5 8 -10 11 -10 2 0 4 5 4 10 0 6 -5 10 -11 10 -5 0
-7 -4 -4 -10z"/>
<path d="M6960 2330 c0 -5 5 -10 10 -10 6 0 10 5 10 10 0 6 -4 10 -10 10 -5 0
-10 -4 -10 -10z"/>
<path d="M7350 2299 c0 -5 5 -7 10 -4 6 3 10 8 10 11 0 2 -4 4 -10 4 -5 0 -10
-5 -10 -11z"/>
<path d="M7105 2180 c3 -5 8 -10 11 -10 2 0 4 5 4 10 0 6 -5 10 -11 10 -5 0
-7 -4 -4 -10z"/>
<path d="M7140 2139 c0 -5 5 -7 10 -4 6 3 10 8 10 11 0 2 -4 4 -10 4 -5 0 -10
-5 -10 -11z"/>
<path d="M6917 2004 c3 -7 9 -14 14 -14 14 0 10 17 -5 23 -10 4 -13 1 -9 -9z"/>
<path d="M7045 1730 c3 -5 8 -10 11 -10 2 0 4 5 4 10 0 6 -5 10 -11 10 -5 0
-7 -4 -4 -10z"/>
<path d="M6840 1720 c0 -5 5 -10 11 -10 5 0 7 5 4 10 -3 6 -8 10 -11 10 -2 0
-4 -4 -4 -10z"/>
<path d="M7020 1720 c0 -5 5 -10 11 -10 5 0 7 5 4 10 -3 6 -8 10 -11 10 -2 0
-4 -4 -4 -10z"/>
<path d="M6925 1670 c3 -5 8 -10 11 -10 2 0 4 5 4 10 0 6 -5 10 -11 10 -5 0
-7 -4 -4 -10z"/>
<path d="M6860 1660 c0 -5 5 -10 10 -10 6 0 10 5 10 10 0 6 -4 10 -10 10 -5 0
-10 -4 -10 -10z"/>
<path d="M6901 1654 c0 -11 3 -14 6 -6 3 7 2 16 -1 19 -3 4 -6 -2 -5 -13z"/>
<path d="M7580 1610 c0 -5 5 -10 11 -10 5 0 7 5 4 10 -3 6 -8 10 -11 10 -2 0
-4 -4 -4 -10z"/>
<path d="M6936 1574 c-9 -24 -7 -27 9 -10 17 17 19 26 6 26 -5 0 -12 -7 -15
-16z"/>
<path d="M6675 1450 c-3 -5 -1 -10 4 -10 6 0 11 5 11 10 0 6 -2 10 -4 10 -3 0
-8 -4 -11 -10z"/>
<path d="M7105 1450 c-3 -5 -1 -10 4 -10 6 0 11 5 11 10 0 6 -2 10 -4 10 -3 0
-8 -4 -11 -10z"/>
<path d="M6930 1200 c0 -5 5 -10 11 -10 5 0 7 5 4 10 -3 6 -8 10 -11 10 -2 0
-4 -4 -4 -10z"/>
<path d="M6960 1040 c0 -5 5 -10 10 -10 6 0 10 5 10 10 0 6 -4 10 -10 10 -5 0
-10 -4 -10 -10z"/>
<path d="M7140 1040 c0 -5 5 -10 10 -10 6 0 10 5 10 10 0 6 -4 10 -10 10 -5 0
-10 -4 -10 -10z"/>
<path d="M6920 934 c0 -8 5 -12 10 -9 6 4 8 11 5 16 -9 14 -15 11 -15 -7z"/>
<path d="M6980 920 c0 -5 5 -10 11 -10 5 0 7 5 4 10 -3 6 -8 10 -11 10 -2 0
-4 -4 -4 -10z"/>
<path d="M6675 900 c-3 -5 -1 -10 4 -10 6 0 11 5 11 10 0 6 -2 10 -4 10 -3 0
-8 -4 -11 -10z"/>
<path d="M6940 670 c0 -5 5 -10 10 -10 6 0 10 5 10 10 0 6 -4 10 -10 10 -5 0
-10 -4 -10 -10z"/>
<path d="M7005 640 c3 -5 8 -10 11 -10 2 0 4 5 4 10 0 6 -5 10 -11 10 -5 0 -7
-4 -4 -10z"/>
<path d="M6900 600 c0 -5 5 -10 10 -10 6 0 10 5 10 10 0 6 -4 10 -10 10 -5 0
-10 -4 -10 -10z"/>
<path d="M6848 533 c-19 -5 -25 -23 -9 -23 17 0 41 12 41 21 0 9 -4 10 -32 2z"/>
<path d="M6800 520 c0 -5 5 -10 10 -10 6 0 10 5 10 10 0 6 -4 10 -10 10 -5 0
-10 -4 -10 -10z"/>
<path d="M6865 500 c-3 -5 -1 -10 4 -10 6 0 11 5 11 10 0 6 -2 10 -4 10 -3 0
-8 -4 -11 -10z"/>
<path d="M6920 470 c0 -5 5 -10 10 -10 6 0 10 5 10 10 0 6 -4 10 -10 10 -5 0
-10 -4 -10 -10z"/>
<path d="M7440 448 c0 -6 3 -8 7 -5 3 4 12 2 20 -4 8 -7 13 -8 13 -1 0 5 -7
13 -16 16 -22 8 -24 8 -24 -6z"/>
<path d="M7045 390 c-3 -5 -1 -10 4 -10 6 0 11 5 11 10 0 6 -2 10 -4 10 -3 0
-8 -4 -11 -10z"/>
<path d="M6736 331 c-4 -5 -2 -12 4 -16 5 -3 10 -3 10 2 0 4 5 1 10 -7 5 -8
10 -10 10 -4 0 17 -27 37 -34 25z"/>
<path d="M6925 330 c-3 -5 -1 -10 4 -10 6 0 11 5 11 10 0 6 -2 10 -4 10 -3 0
-8 -4 -11 -10z"/>
<path d="M6800 259 c0 -5 5 -7 10 -4 6 3 10 8 10 11 0 2 -4 4 -10 4 -5 0 -10
-5 -10 -11z"/>
<path d="M6775 250 c-3 -5 -1 -10 4 -10 6 0 11 5 11 10 0 6 -2 10 -4 10 -3 0
-8 -4 -11 -10z"/>
<path d="M7045 240 c3 -5 8 -10 11 -10 2 0 4 5 4 10 0 6 -5 10 -11 10 -5 0 -7
-4 -4 -10z"/>
<path d="M7005 170 c3 -5 8 -10 11 -10 2 0 4 5 4 10 0 6 -5 10 -11 10 -5 0 -7
-4 -4 -10z"/>
<path d="M3540 85 c0 -50 4 -85 10 -85 6 0 10 26 10 58 l0 57 23 -27 c29 -35
113 -62 173 -55 40 4 44 3 39 -14 -6 -16 -1 -19 34 -19 31 0 41 4 41 16 0 14
-3 14 -15 4 -17 -14 -20 -3 -6 19 13 20 66 -2 57 -24 -4 -12 4 -15 39 -15 l45
0 0 59 c0 33 -4 63 -10 66 -5 3 -10 15 -10 26 0 26 -48 25 -95 -2 -20 -12 -39
-19 -42 -15 -4 3 -1 6 5 6 7 0 12 7 12 15 0 21 -8 19 -46 -15 -70 -61 -154
-61 -175 0 -6 16 -15 30 -21 30 -16 0 2 -44 28 -67 35 -32 98 -30 216 5 l95
28 -14 -45 c-16 -54 -23 -63 -23 -28 0 39 -37 45 -108 17 -31 -12 -68 -23 -81
-25 -55 -8 -141 50 -141 96 0 12 -7 19 -20 19 -18 0 -20 -7 -20 -85z"/>
<path d="M3990 168 c0 -2 7 -28 15 -58 8 -30 15 -67 15 -82 0 -21 5 -28 20
-28 29 0 35 40 15 99 -9 28 -14 55 -10 61 4 6 -6 10 -24 10 -17 0 -31 -1 -31
-2z"/>
<path d="M4110 161 c0 -5 4 -12 9 -16 16 -9 23 -88 12 -117 -9 -25 -8 -28 9
-28 15 0 20 10 25 45 10 64 -5 119 -33 123 -12 2 -22 -1 -22 -7z"/>
<path d="M4194 85 c1 -76 3 -85 19 -85 17 0 18 5 10 43 -4 23 -8 61 -8 85 0
24 -4 42 -10 42 -7 0 -11 -30 -11 -85z"/>
<path d="M4345 120 c-4 -28 -11 -47 -16 -44 -5 3 -9 -9 -9 -25 0 -17 -4 -31
-10 -31 -5 0 -10 -4 -10 -10 0 -5 9 -10 19 -10 15 0 23 13 36 58 8 31 20 67
25 80 13 31 13 32 -9 32 -15 0 -20 -10 -26 -50z"/>
<path d="M5753 113 c4 -38 3 -52 -3 -43 -13 20 -12 0 1 -39 7 -20 18 -31 31
-31 14 0 18 5 14 18 -3 9 -10 47 -17 85 -14 83 -34 91 -26 10z"/>
<path d="M5881 138 c1 -18 -6 -53 -15 -77 -21 -57 -20 -61 7 -61 21 0 26 10
49 85 l25 85 -33 0 c-31 0 -33 -2 -33 -32z"/>
<path d="M5565 150 c3 -5 8 -10 11 -10 2 0 4 5 4 10 0 6 -5 10 -11 10 -5 0 -7
-4 -4 -10z"/>
<path d="M5170 124 c0 -8 5 -12 10 -9 6 4 8 11 5 16 -9 14 -15 11 -15 -7z"/>
<path d="M6115 119 c-4 -6 -5 -12 -2 -15 2 -3 7 2 10 11 7 17 1 20 -8 4z"/>
<path d="M6610 120 c0 -5 5 -10 10 -10 6 0 10 5 10 10 0 6 -4 10 -10 10 -5 0
-10 -4 -10 -10z"/>
<path d="M5270 100 c0 -5 5 -10 11 -10 5 0 7 5 4 10 -3 6 -8 10 -11 10 -2 0
-4 -4 -4 -10z"/>
<path d="M6040 100 c0 -5 5 -10 11 -10 5 0 7 5 4 10 -3 6 -8 10 -11 10 -2 0
-4 -4 -4 -10z"/>
<path d="M5170 95 c0 -5 5 -17 11 -25 8 -11 12 -12 16 -2 2 6 12 12 21 12 13
0 13 3 4 12 -10 10 -15 10 -22 -2 -9 -13 -11 -13 -20 0 -5 8 -10 11 -10 5z"/>
<path d="M6610 80 c0 -5 5 -10 10 -10 6 0 10 5 10 10 0 6 -4 10 -10 10 -5 0
-10 -4 -10 -10z"/>
<path d="M6646 74 c-8 -22 -4 -25 11 -9 7 8 9 16 4 19 -5 3 -12 -1 -15 -10z"/>
<path d="M5403 64 c-7 -7 -9 -15 -5 -17 4 -3 13 1 19 9 7 7 9 15 5 17 -4 3
-13 -1 -19 -9z"/>
<path d="M6090 65 c-7 -8 -9 -15 -6 -15 4 0 14 7 22 15 9 8 11 15 6 15 -5 0
-15 -7 -22 -15z"/>
<path d="M5230 59 c0 -5 5 -7 10 -4 6 3 10 8 10 11 0 2 -4 4 -10 4 -5 0 -10
-5 -10 -11z"/>
<path d="M5270 60 c0 -5 5 -10 11 -10 5 0 7 5 4 10 -3 6 -8 10 -11 10 -2 0 -4
-4 -4 -10z"/>
<path d="M5575 60 c-3 -5 -1 -10 4 -10 6 0 11 5 11 10 0 6 -2 10 -4 10 -3 0
-8 -4 -11 -10z"/>
<path d="M6040 60 c0 -5 5 -10 11 -10 5 0 7 5 4 10 -3 6 -8 10 -11 10 -2 0 -4
-4 -4 -10z"/>
<path d="M6190 60 c0 -5 5 -10 11 -10 5 0 7 5 4 10 -3 6 -8 10 -11 10 -2 0 -4
-4 -4 -10z"/>
<path d="M6160 50 c0 -5 5 -10 10 -10 6 0 10 5 10 10 0 6 -4 10 -10 10 -5 0
-10 -4 -10 -10z"/>
<path d="M6330 44 c0 -3 7 -12 15 -20 16 -17 18 -14 9 10 -6 15 -24 23 -24 10z"/>
<path d="M6535 20 c3 -5 8 -10 11 -10 2 0 4 5 4 10 0 6 -5 10 -11 10 -5 0 -7
-4 -4 -10z"/>
<path d="M5210 10 c0 -5 5 -10 10 -10 6 0 10 5 10 10 0 6 -4 10 -10 10 -5 0
-10 -4 -10 -10z"/>
<path d="M6430 10 c0 -5 5 -10 10 -10 6 0 10 5 10 10 0 6 -4 10 -10 10 -5 0
-10 -4 -10 -10z"/>
</g>
</svg>
