<?xml version="1.0" encoding="UTF-8" standalone="no"?>
<svg xmlns="http://www.w3.org/2000/svg" width="300" height="200" viewBox="0 0 300 200">
  <style>
    @keyframes float {
      0%, 100% { transform: translateY(0); }
      50% { transform: translateY(-3px); }
    }
    .floating {
      animation: float 3s ease-in-out infinite;
    }
    @keyframes blink {
      0%, 49% { opacity: 1; }
      50%, 100% { opacity: 0; }
    }
    .blinking {
      animation: blink 1s infinite;
    }
    @keyframes spin {
      0% { transform: rotate(0deg); }
      100% { transform: rotate(360deg); }
    }
    .spinning {
      transform-origin: center;
      animation: spin 10s linear infinite;
    }
  </style>
  
  <!-- Background -->
  <rect width="300" height="200" fill="#000080" />
  
  <!-- Grid pattern background -->
  <defs>
    <pattern id="grid" width="20" height="20" patternUnits="userSpaceOnUse">
      <rect width="20" height="20" fill="#000080" />
      <path d="M 20 0 L 0 0 0 20" fill="none" stroke="#0000A0" stroke-width="1" />
    </pattern>
  </defs>
  <rect width="300" height="200" fill="url(#grid)" />
  
  <!-- Group of programmers -->
  <!-- Person 1 -->
  <g transform="translate(50, 120)">
    <circle cx="0" cy="-30" r="20" fill="#FFD700" stroke="#000000" stroke-width="1" /> <!-- Head -->
    <rect x="-15" y="-10" width="30" height="40" rx="5" fill="#FF6347" /> <!-- Body -->
    
    <!-- Face -->
    <circle cx="-7" cy="-35" r="3" fill="#000000" /> <!-- Left eye -->
    <circle cx="7" cy="-35" r="3" fill="#000000" /> <!-- Right eye -->
    <path d="M-7,-25 Q0,-20 7,-25" stroke="#000000" stroke-width="2" fill="none" /> <!-- Smile -->
    
    <!-- Thought bubble with code -->
    <g class="floating" transform="translate(25, -50)">
      <circle cx="0" cy="0" r="15" fill="#FFFFFF" stroke="#000000" stroke-width="1" />
      <text x="0" y="0" font-family="Courier New, monospace" font-size="5" text-anchor="middle" dominant-baseline="middle">if(tired) {</text>
      <text x="0" y="7" font-family="Courier New, monospace" font-size="5" text-anchor="middle" dominant-baseline="middle">sleep();</text>
      <text x="0" y="14" font-family="Courier New, monospace" font-size="5" text-anchor="middle" dominant-baseline="middle">}</text>
    </g>
  </g>
  
  <!-- Person 2 -->
  <g transform="translate(100, 130)">
    <circle cx="0" cy="-30" r="20" fill="#98FB98" stroke="#000000" stroke-width="1" /> <!-- Head -->
    <rect x="-15" y="-10" width="30" height="40" rx="5" fill="#6495ED" /> <!-- Body -->
    
    <!-- Face -->
    <circle cx="-7" cy="-35" r="3" fill="#000000" /> <!-- Left eye -->
    <circle cx="7" cy="-35" r="3" fill="#000000" /> <!-- Right eye -->
    <path d="M-7,-25 L7,-25" stroke="#000000" stroke-width="2" fill="none" /> <!-- Neutral expression -->
    
    <!-- ZZZ -->
    <g class="floating" transform="translate(25, -40)">
      <text x="0" y="0" font-family="Comic Sans MS, cursive" font-size="10" font-weight="bold" fill="#FFFFFF" class="blinking">ZZZ</text>
    </g>
  </g>
  
  <!-- Person 3 -->
  <g transform="translate(150, 120)">
    <circle cx="0" cy="-30" r="20" fill="#FFA07A" stroke="#000000" stroke-width="1" /> <!-- Head -->
    <rect x="-15" y="-10" width="30" height="40" rx="5" fill="#9370DB" /> <!-- Body -->
    
    <!-- Face -->
    <circle cx="-7" cy="-35" r="3" fill="#000000" /> <!-- Left eye -->
    <circle cx="7" cy="-35" r="3" fill="#000000" /> <!-- Right eye -->
    <path d="M-7,-25 Q0,-30 7,-25" stroke="#000000" stroke-width="2" fill="none" /> <!-- Frown -->
    
    <!-- Facebook icon -->
    <g class="spinning" transform="translate(25, -40) scale(0.5)">
      <circle cx="0" cy="0" r="10" fill="#3b5998" />
      <text x="-5" y="5" font-family="Arial, sans-serif" font-size="15" font-weight="bold" fill="#FFFFFF">f</text>
    </g>
  </g>
  
  <!-- Person 4 -->
  <g transform="translate(200, 130)">
    <circle cx="0" cy="-30" r="20" fill="#FFDAB9" stroke="#000000" stroke-width="1" /> <!-- Head -->
    <rect x="-15" y="-10" width="30" height="40" rx="5" fill="#20B2AA" /> <!-- Body -->
    
    <!-- Face -->
    <circle cx="-7" cy="-35" r="3" fill="#000000" /> <!-- Left eye -->
    <circle cx="7" cy="-35" r="3" fill="#000000" /> <!-- Right eye -->
    <path d="M-7,-25 Q0,-20 7,-25" stroke="#000000" stroke-width="2" fill="none" /> <!-- Smile -->
    
    <!-- Coffee cup -->
    <g class="floating" transform="translate(25, -30)">
      <rect x="-5" y="-10" width="10" height="15" rx="2" fill="#8B4513" />
      <rect x="-7" y="-12" width="14" height="4" rx="1" fill="#D2B48C" />
      <path d="M5,-8 Q10,-5 5,0" stroke="#8B4513" stroke-width="2" fill="none" /> <!-- Handle -->
      <path d="M-2,-7 L2,-7 L0,-3 Z" fill="#FFFFFF" /> <!-- Steam -->
    </g>
  </g>
  
  <!-- Person 5 -->
  <g transform="translate(250, 120)">
    <circle cx="0" cy="-30" r="20" fill="#E6E6FA" stroke="#000000" stroke-width="1" /> <!-- Head -->
    <rect x="-15" y="-10" width="30" height="40" rx="5" fill="#FF69B4" /> <!-- Body -->
    
    <!-- Face -->
    <circle cx="-7" cy="-35" r="3" fill="#000000" /> <!-- Left eye -->
    <circle cx="7" cy="-35" r="3" fill="#000000" /> <!-- Right eye -->
    <path d="M-7,-25 Q0,-20 7,-25" stroke="#000000" stroke-width="2" fill="none" /> <!-- Smile -->
    
    <!-- Smartphone -->
    <g class="floating" transform="translate(-10, -10)">
      <rect x="-5" y="-5" width="10" height="15" rx="1" fill="#000000" />
      <rect x="-4" y="-4" width="8" height="13" rx="0.5" fill="#00FFFF" />
    </g>
  </g>
  
  <!-- Banner -->
  <rect x="20" y="20" width="260" height="40" fill="#FF0000" />
  <text x="150" y="45" font-family="Arial Black, sans-serif" font-size="16" font-weight="bold" fill="#FFFFFF" text-anchor="middle">KOMUNITAS IMPHNEN</text>
  
  <!-- Subtitle -->
  <text x="150" y="65" font-family="Comic Sans MS, cursive" font-size="12" fill="#FFFF00" text-anchor="middle" class="blinking">Bersatu dalam Kemalasan!</text>
  
  <!-- Border -->
  <rect width="300" height="200" fill="none" stroke="#FFFFFF" stroke-width="5" />
</svg>
