<?xml version="1.0" encoding="UTF-8" standalone="no"?>
<svg xmlns="http://www.w3.org/2000/svg" width="120" height="31" viewBox="0 0 120 31">
  <style>
    @keyframes rotate {
      0% { transform: rotate(0deg); }
      100% { transform: rotate(360deg); }
    }
    .rotating {
      transform-origin: center;
      animation: rotate 10s linear infinite;
    }
    @keyframes flash {
      0%, 49% { fill: #FF00FF; }
      50%, 100% { fill: #00FFFF; }
    }
    .flashing {
      animation: flash 1s infinite;
    }
  </style>

  <!-- Button background -->
  <rect width="120" height="31" rx="5" fill="#9933CC" stroke="#663399" stroke-width="2" />

  <!-- 3D effect -->
  <rect x="2" y="2" width="116" height="27" rx="4" fill="#CC99FF" />

  <!-- Inner shadow -->
  <rect x="4" y="4" width="112" height="23" rx="3" fill="#9933CC" />

  <!-- Text -->
  <text x="60" y="20" font-family="Impact, sans-serif" font-size="12" fill="#FFFFFF" text-anchor="middle">MEME GALLERY</text>

  <!-- Meme icon - simplified trollface -->
  <g transform="translate(20, 15) scale(0.4)">
    <circle cx="0" cy="0" r="10" fill="#FFFFFF" />
    <path d="M-5,-2 C-3,0 -1,0 0,-2 C1,0 3,0 5,-2" stroke="#000000" stroke-width="1" fill="none" />
    <path d="M-5,4 C-2,8 2,8 5,4" stroke="#000000" stroke-width="1" fill="none" />
  </g>

  <!-- LOL text -->
  <text x="100" y="18" font-family="Comic Sans MS, cursive" font-size="10" font-weight="bold" fill="#FFFF00" class="flashing">LOL</text>

  <!-- Rotating star -->
  <g class="rotating" transform="translate(100, 15)">
    <polygon points="0,-5 1,-1 5,0 1,1 0,5 -1,1 -5,0 -1,-1" fill="#FFFFFF" />
  </g>
</svg>
