<?xml version="1.0" standalone="no"?>
<!DOCTYPE svg PUBLIC "-//W3C//DTD SVG 20010904//EN"
 "http://www.w3.org/TR/2001/REC-SVG-20010904/DTD/svg10.dtd">
<svg version="1.0" xmlns="http://www.w3.org/2000/svg"
 width="1081.000000pt" height="1081.000000pt" viewBox="0 0 1081.000000 1081.000000"
 preserveAspectRatio="xMidYMid meet">

<g transform="translate(0.000000,1081.000000) scale(0.100000,-0.100000)"
fill="#000000" stroke="none">
<path d="M5260 10794 c-146 -28 -203 -42 -315 -79 -1361 -447 -3701 -2631
-4608 -4300 -98 -181 -189 -386 -242 -550 -67 -204 -80 -276 -80 -460 0 -184
13 -256 80 -460 243 -741 992 -1782 2025 -2815 1039 -1040 2082 -1791 2825
-2035 204 -67 276 -80 460 -80 184 0 256 13 460 80 742 243 1784 994 2820
2030 1036 1036 1787 2078 2030 2820 67 204 80 276 80 460 0 184 -13 256 -80
460 -244 742 -993 1783 -2030 2820 -1132 1132 -2257 1912 -3012 2086 -86 20
-352 34 -413 23z m1044 -2322 c175 -82 392 -300 683 -687 512 -679 1088 -1715
1359 -2443 111 -298 173 -573 160 -711 -10 -116 -79 -232 -231 -390 -304 -317
-974 -788 -1695 -1190 -391 -219 -944 -480 -1260 -596 -285 -104 -556 -164
-689 -151 -116 10 -232 79 -390 231 -365 349 -925 1174 -1335 1965 -346 670
-543 1167 -592 1502 -28 189 -6 286 97 425 435 588 2330 1728 3354 2017 263
74 423 82 539 28z"/>
</g>
</svg>
