<?xml version="1.0" encoding="UTF-8" standalone="no"?>
<svg xmlns="http://www.w3.org/2000/svg" width="150" height="150" viewBox="0 0 150 150">
  <!-- Background -->
  <rect width="150" height="150" rx="10" ry="10" fill="#F8F9FA" stroke="#000080" stroke-width="2" />
  
  <!-- Retro Computer -->
  <!-- Monitor -->
  <rect x="30" y="20" width="90" height="70" rx="5" ry="5" fill="#c0c0c0" stroke="#000000" stroke-width="2" />
  <rect x="35" y="25" width="80" height="55" rx="2" ry="2" fill="#000000" stroke="#000000" stroke-width="1" />
  
  <!-- Screen content -->
  <text x="40" y="35" font-family="monospace" font-size="5" fill="#00FF00">C:\\> IMPHNEN.EXE</text>
  <text x="40" y="45" font-family="monospace" font-size="5" fill="#00FF00">Loading...</text>
  <text x="40" y="55" font-family="monospace" font-size="5" fill="#00FF00">Error: Too lazy to code</text>
  <text x="40" y="65" font-family="monospace" font-size="5" fill="#00FF00">Abort, Retry, Fail?</text>
  <text x="40" y="75" font-family="monospace" font-size="5" fill="#00FF00">_</text>
  
  <!-- Monitor details -->
  <rect x="70" y="80" width="10" height="5" rx="1" ry="1" fill="#404040" />
  <circle cx="75" cy="82.5" r="1.5" fill="#FF6B6B" />
  
  <!-- Computer base -->
  <rect x="45" y="90" width="60" height="20" rx="2" ry="2" fill="#c0c0c0" stroke="#000000" stroke-width="2" />
  
  <!-- Keyboard -->
  <rect x="35" y="115" width="80" height="15" rx="2" ry="2" fill="#404040" stroke="#000000" stroke-width="1" />
  <rect x="40" y="117" width="70" height="11" rx="1" ry="1" fill="#606060" stroke="#000000" stroke-width="0.5" />
  
  <!-- Keyboard keys -->
  <g fill="#c0c0c0">
    <rect x="42" y="119" width="4" height="3" rx="1" ry="1" />
    <rect x="48" y="119" width="4" height="3" rx="1" ry="1" />
    <rect x="54" y="119" width="4" height="3" rx="1" ry="1" />
    <rect x="60" y="119" width="4" height="3" rx="1" ry="1" />
    <rect x="66" y="119" width="4" height="3" rx="1" ry="1" />
    <rect x="72" y="119" width="4" height="3" rx="1" ry="1" />
    <rect x="78" y="119" width="4" height="3" rx="1" ry="1" />
    <rect x="84" y="119" width="4" height="3" rx="1" ry="1" />
    <rect x="90" y="119" width="4" height="3" rx="1" ry="1" />
    <rect x="96" y="119" width="4" height="3" rx="1" ry="1" />
    <rect x="42" y="123" width="4" height="3" rx="1" ry="1" />
    <rect x="48" y="123" width="4" height="3" rx="1" ry="1" />
    <rect x="54" y="123" width="4" height="3" rx="1" ry="1" />
    <rect x="60" y="123" width="30" height="3" rx="1" ry="1" />
    <rect x="92" y="123" width="8" height="3" rx="1" ry="1" />
  </g>
  
  <!-- Floppy disk -->
  <g transform="translate(115, 100)">
    <rect x="-10" y="-10" width="20" height="20" rx="2" ry="2" fill="#404040" stroke="#000000" stroke-width="1" />
    <rect x="-8" y="-8" width="16" height="5" rx="1" ry="1" fill="#c0c0c0" />
    <rect x="-5" y="0" width="10" height="2" rx="1" ry="1" fill="#c0c0c0" />
  </g>
  
  <!-- Coffee mug -->
  <g transform="translate(25, 100)">
    <path d="M-5,-10 L5,-10 L7,5 L-7,5 Z" fill="#8E2DE2" stroke="#000000" stroke-width="0.5" />
    <ellipse cx="0" cy="-10" rx="5" ry="1" fill="#8E2DE2" stroke="#000000" stroke-width="0.5" />
    <path d="M7,-5 L10,-5 L10,0 L7,0" fill="none" stroke="#000000" stroke-width="1" />
  </g>
  
  <!-- Title -->
  <text x="75" y="145" font-family="Arial" font-size="10" font-weight="bold" text-anchor="middle" fill="#000080">RETRO COMPUTER</text>
</svg>
