<?xml version="1.0" standalone="no"?>
<!DOCTYPE svg PUBLIC "-//W3C//DTD SVG 20010904//EN"
 "http://www.w3.org/TR/2001/REC-SVG-20010904/DTD/svg10.dtd">
<svg version="1.0" xmlns="http://www.w3.org/2000/svg"
 width="400.000000pt" height="400.000000pt" viewBox="0 0 400.000000 400.000000"
 preserveAspectRatio="xMidYMid meet">

<g transform="translate(0.000000,400.000000) scale(0.100000,-0.100000)"
fill="#000000" stroke="none">
<path d="M0 2000 l0 -2000 2000 0 2000 0 0 2000 0 2000 -2000 0 -2000 0 0
-2000z m2200 1100 l0 -100 -100 0 -100 0 0 -100 0 -100 -100 0 -100 0 0 -100
0 -100 100 0 100 0 0 -100 0 -100 -100 0 -100 0 0 100 0 100 -100 0 -100 0 0
100 0 100 -200 0 -200 0 0 100 0 100 200 0 200 0 0 -100 0 -100 100 0 100 0 0
100 0 100 100 0 100 0 0 100 0 100 100 0 100 0 0 -100z m600 0 l0 -100 -100 0
-100 0 0 -200 0 -200 -100 0 -100 0 0 200 0 200 100 0 100 0 0 100 0 100 100
0 100 0 0 -100z m600 -400 l0 -100 -200 0 -200 0 0 -100 0 -100 -100 0 -100 0
0 100 0 100 100 0 100 0 0 100 0 100 200 0 200 0 0 -100z m-2400 -200 l0 -100
100 0 100 0 0 -100 0 -100 100 0 100 0 0 -100 0 -100 -100 0 -100 0 0 100 0
100 -100 0 -100 0 0 -100 0 -100 -100 0 -100 0 0 100 0 100 100 0 100 0 0 100
0 100 -100 0 -100 0 0 100 0 100 100 0 100 0 0 -100z m1000 -400 l0 -100 100
0 100 0 0 100 0 100 200 0 200 0 0 -100 0 -100 200 0 200 0 0 100 0 100 100 0
100 0 0 -100 0 -100 -100 0 -100 0 0 -200 0 -200 100 0 100 0 0 -200 0 -200
-200 0 -200 0 0 -100 0 -100 -400 0 -400 0 0 100 0 100 -100 0 -100 0 0 100 0
100 -100 0 -100 0 0 100 0 100 100 0 100 0 0 100 0 100 -100 0 -100 0 0 200 0
200 200 0 200 0 0 -100z m-1400 -200 l0 -100 300 0 300 0 0 -100 0 -100 -300
0 -300 0 0 100 0 100 -100 0 -100 0 0 100 0 100 100 0 100 0 0 -100z m800
-600 l0 -100 -200 0 -200 0 0 -100 0 -100 -100 0 -100 0 0 100 0 100 100 0
100 0 0 100 0 100 200 0 200 0 0 -100z"/>
<path d="M1800 1900 l0 -100 100 0 100 0 0 100 0 100 -100 0 -100 0 0 -100z"/>
<path d="M2200 1800 l0 -200 200 0 200 0 0 200 0 200 -200 0 -200 0 0 -200z"/>
</g>
</svg>
