<?xml version="1.0" encoding="UTF-8" standalone="no"?>
<svg xmlns="http://www.w3.org/2000/svg" width="100" height="100" viewBox="0 0 100 100">
  <rect width="100" height="100" fill="#000080" />
  
  <!-- Small stars -->
  <circle cx="10" cy="10" r="0.5" fill="#FFFFFF" />
  <circle cx="25" cy="15" r="0.5" fill="#FFFFFF" />
  <circle cx="40" cy="10" r="0.5" fill="#FFFFFF" />
  <circle cx="55" cy="15" r="0.5" fill="#FFFFFF" />
  <circle cx="70" cy="10" r="0.5" fill="#FFFFFF" />
  <circle cx="85" cy="15" r="0.5" fill="#FFFFFF" />
  <circle cx="15" cy="30" r="0.5" fill="#FFFFFF" />
  <circle cx="30" cy="25" r="0.5" fill="#FFFFFF" />
  <circle cx="45" cy="30" r="0.5" fill="#FFFFFF" />
  <circle cx="60" cy="25" r="0.5" fill="#FFFFFF" />
  <circle cx="75" cy="30" r="0.5" fill="#FFFFFF" />
  <circle cx="90" cy="25" r="0.5" fill="#FFFFFF" />
  <circle cx="10" cy="45" r="0.5" fill="#FFFFFF" />
  <circle cx="25" cy="40" r="0.5" fill="#FFFFFF" />
  <circle cx="40" cy="45" r="0.5" fill="#FFFFFF" />
  <circle cx="55" cy="40" r="0.5" fill="#FFFFFF" />
  <circle cx="70" cy="45" r="0.5" fill="#FFFFFF" />
  <circle cx="85" cy="40" r="0.5" fill="#FFFFFF" />
  <circle cx="15" cy="60" r="0.5" fill="#FFFFFF" />
  <circle cx="30" cy="55" r="0.5" fill="#FFFFFF" />
  <circle cx="45" cy="60" r="0.5" fill="#FFFFFF" />
  <circle cx="60" cy="55" r="0.5" fill="#FFFFFF" />
  <circle cx="75" cy="60" r="0.5" fill="#FFFFFF" />
  <circle cx="90" cy="55" r="0.5" fill="#FFFFFF" />
  <circle cx="10" cy="75" r="0.5" fill="#FFFFFF" />
  <circle cx="25" cy="70" r="0.5" fill="#FFFFFF" />
  <circle cx="40" cy="75" r="0.5" fill="#FFFFFF" />
  <circle cx="55" cy="70" r="0.5" fill="#FFFFFF" />
  <circle cx="70" cy="75" r="0.5" fill="#FFFFFF" />
  <circle cx="85" cy="70" r="0.5" fill="#FFFFFF" />
  <circle cx="15" cy="90" r="0.5" fill="#FFFFFF" />
  <circle cx="30" cy="85" r="0.5" fill="#FFFFFF" />
  <circle cx="45" cy="90" r="0.5" fill="#FFFFFF" />
  <circle cx="60" cy="85" r="0.5" fill="#FFFFFF" />
  <circle cx="75" cy="90" r="0.5" fill="#FFFFFF" />
  <circle cx="90" cy="85" r="0.5" fill="#FFFFFF" />
  
  <!-- Medium stars -->
  <circle cx="20" cy="20" r="1" fill="#FFFFFF" />
  <circle cx="50" cy="30" r="1" fill="#FFFFFF" />
  <circle cx="80" cy="20" r="1" fill="#FFFFFF" />
  <circle cx="20" cy="50" r="1" fill="#FFFFFF" />
  <circle cx="50" cy="50" r="1" fill="#FFFFFF" />
  <circle cx="80" cy="50" r="1" fill="#FFFFFF" />
  <circle cx="20" cy="80" r="1" fill="#FFFFFF" />
  <circle cx="50" cy="70" r="1" fill="#FFFFFF" />
  <circle cx="80" cy="80" r="1" fill="#FFFFFF" />
  
  <!-- Large stars (with glow) -->
  <circle cx="35" cy="35" r="1.5" fill="#FFFFFF" filter="url(#glow)" />
  <circle cx="65" cy="65" r="1.5" fill="#FFFFFF" filter="url(#glow)" />
  <circle cx="15" cy="75" r="1.5" fill="#FFFFFF" filter="url(#glow)" />
  <circle cx="85" cy="25" r="1.5" fill="#FFFFFF" filter="url(#glow)" />
  
  <!-- Glow filter -->
  <defs>
    <filter id="glow" x="-50%" y="-50%" width="200%" height="200%">
      <feGaussianBlur stdDeviation="1" result="blur" />
      <feComposite in="SourceGraphic" in2="blur" operator="over" />
    </filter>
  </defs>
</svg>
