<?xml version="1.0" encoding="UTF-8" standalone="no"?>
<svg xmlns="http://www.w3.org/2000/svg" width="50" height="50" viewBox="0 0 50 50">
  <style>
    @keyframes glow {
      0%, 100% { filter: drop-shadow(0 0 1px #FFFF00); }
      50% { filter: drop-shadow(0 0 3px #FFFF00); }
    }
    .glowing {
      animation: glow 2s infinite;
    }
    @keyframes float {
      0%, 100% { transform: translateY(0); }
      50% { transform: translateY(-2px); }
    }
    .floating {
      animation: float 2s ease-in-out infinite;
    }
  </style>
  
  <!-- Background -->
  <circle cx="25" cy="25" r="23" fill="#FFFFFF" stroke="#000080" stroke-width="2" />
  
  <!-- Open book -->
  <g class="floating">
    <!-- Left page -->
    <path d="M15,18 L15,35 Q20,32 25,35 L25,18 Q20,15 15,18 Z" fill="#FFFFCC" stroke="#000000" stroke-width="1" />
    
    <!-- Right page -->
    <path d="M25,18 L25,35 Q30,32 35,35 L35,18 Q30,15 25,18 Z" fill="#FFFFCC" stroke="#000000" stroke-width="1" />
    
    <!-- Book spine -->
    <path d="M24,18 L26,18" stroke="#000000" stroke-width="1" />
    <path d="M24,35 L26,35" stroke="#000000" stroke-width="1" />
    
    <!-- Text lines on left page -->
    <line x1="18" y1="22" x2="22" y2="22" stroke="#000080" stroke-width="0.5" />
    <line x1="18" y1="24" x2="23" y2="24" stroke="#000080" stroke-width="0.5" />
    <line x1="18" y1="26" x2="22" y2="26" stroke="#000080" stroke-width="0.5" />
    <line x1="18" y1="28" x2="23" y2="28" stroke="#000080" stroke-width="0.5" />
    <line x1="18" y1="30" x2="21" y2="30" stroke="#000080" stroke-width="0.5" />
    
    <!-- Code on right page -->
    <text x="27" y="23" font-family="Courier New, monospace" font-size="2" fill="#000080">function hello() {</text>
    <text x="27" y="26" font-family="Courier New, monospace" font-size="2" fill="#000080">  console.log(</text>
    <text x="27" y="29" font-family="Courier New, monospace" font-size="2" fill="#000080">    "Hello!"</text>
    <text x="27" y="32" font-family="Courier New, monospace" font-size="2" fill="#000080">  );</text>
    <text x="27" y="35" font-family="Courier New, monospace" font-size="2" fill="#000080">}</text>
  </g>
  
  <!-- Lightbulb idea -->
  <g class="glowing" transform="translate(35, 15)">
    <circle cx="0" cy="0" r="5" fill="#FFFF00" stroke="#FF9900" stroke-width="0.5" />
    <line x1="0" y1="-7" x2="0" y2="-5" stroke="#FF9900" stroke-width="1" />
    <line x1="-5" y1="-5" x2="-3" y2="-3" stroke="#FF9900" stroke-width="1" />
    <line x1="5" y1="-5" x2="3" y2="-3" stroke="#FF9900" stroke-width="1" />
    <line x1="-7" y1="0" x2="-5" y2="0" stroke="#FF9900" stroke-width="1" />
    <line x1="7" y1="0" x2="5" y2="0" stroke="#FF9900" stroke-width="1" />
    <line x1="-5" y1="5" x2="-3" y2="3" stroke="#FF9900" stroke-width="1" />
    <line x1="5" y1="5" x2="3" y2="3" stroke="#FF9900" stroke-width="1" />
    
    <!-- Filament -->
    <path d="M-1,0 L1,0 M0,-1 L0,1" stroke="#FF9900" stroke-width="0.5" />
  </g>
  
  <!-- Graduation cap -->
  <g transform="translate(15, 15) scale(0.8)">
    <rect x="-5" y="-2" width="10" height="2" fill="#000000" />
    <polygon points="0,-5 -6,-2 6,-2" fill="#000000" />
    <circle cx="0" cy="-3.5" r="1" fill="#FFFFFF" />
    <path d="M6,-2 L6,1" stroke="#000000" stroke-width="0.5" />
    <path d="M5,1 L7,1" stroke="#000000" stroke-width="0.5" />
  </g>
</svg>
