<?xml version="1.0" encoding="UTF-8" standalone="no"?>
<svg xmlns="http://www.w3.org/2000/svg" width="80" height="80" viewBox="0 0 80 80">
  <!-- Background -->
  <circle cx="40" cy="40" r="38" fill="#F8F9FA" stroke="#4A00E0" stroke-width="2" />
  
  <!-- Book/Tutorial -->
  <path d="M20,20 L60,20 L60,60 L20,60 C15,60 15,20 20,20 Z" fill="#8E2DE2" />
  <path d="M20,20 L60,20 L60,60 L20,60" fill="none" stroke="#4A00E0" stroke-width="1" />
  
  <!-- Book pages -->
  <path d="M22,22 L58,22 L58,58 L22,58 C19,58 19,22 22,22 Z" fill="#FFFFFF" />
  
  <!-- Book binding -->
  <path d="M20,20 C15,20 15,60 20,60" fill="none" stroke="#4A00E0" stroke-width="1" />
  
  <!-- Text lines -->
  <line x1="25" y1="30" x2="55" y2="30" stroke="#4ECDC4" stroke-width="2" />
  <line x1="25" y1="35" x2="50" y2="35" stroke="#4ECDC4" stroke-width="2" />
  <line x1="25" y1="40" x2="55" y2="40" stroke="#FF6B6B" stroke-width="2" />
  <line x1="25" y1="45" x2="45" y2="45" stroke="#FF6B6B" stroke-width="2" />
  <line x1="25" y1="50" x2="55" y2="50" stroke="#FFD166" stroke-width="2" />
  
  <!-- Bookmark -->
  <path d="M50,20 L50,30 L55,25 L60,30 L60,20 Z" fill="#FF6B6B" />
  
  <!-- Lightbulb (idea) -->
  <circle cx="60" cy="15" r="8" fill="#FFD166" />
  <circle cx="60" cy="15" r="5" fill="#FFFFFF" />
  <path d="M60,23 L60,28" stroke="#FFD166" stroke-width="2" />
</svg>
